<svg class="we-svg-icon-walker-engineering-enterprise we-svg" width="1000" height="441" viewBox="0 0 1000 441" fill="none" xmlns="http://www.w3.org/2000/svg">
  <g id="Walker_Engineering_Enterprise_Icon">
    <g id="g_ICON">
      <g id="g_01">
        <path id="path_19" d="M838.519 168.093C860.208 168.093 881.534 168.093 902.924 168.093C901.429 173.204 900.176 174.197 895.357 174.197C841.152 174.197 786.955 174.198 732.75 174.199C731.454 174.199 730.159 174.199 728.486 174.199C728.194 172.259 727.924 170.472 727.561 168.093C764.739 168.093 801.447 168.093 838.519 168.093Z" fill="#BABABB"></path>
        <path id="path_18" d="M938.949 106.829C938.237 109.571 936.472 110.322 933.689 110.318C883.769 110.243 833.85 110.257 783.93 110.287C781.73 110.288 779.737 110.369 780.634 106.987C782.328 106.76 783.631 106.825 784.933 106.825C836.27 106.83 887.613 106.829 938.949 106.829Z" fill="#8D8D8F"></path>
        <path id="path_17" d="M939.142 106.637C887.614 106.83 836.27 106.83 784.934 106.825C783.631 106.825 782.329 106.761 780.713 106.687C780.393 105.838 780.393 105.029 780.393 104.073C833.644 104.073 886.809 104.073 940.43 104.073C940.025 104.939 939.676 105.692 939.142 106.637Z" fill="#D7D7D7"></path>
        <path id="path_16" d="M805.223 89.8685C809.657 89.6115 814.042 89.6834 818.427 89.6841C861.684 89.6941 904.941 89.6926 948.54 89.7012C948.277 92.1278 946.348 91.7548 944.589 91.7548C925.861 91.7526 907.133 91.7533 888.406 91.7533C861.848 91.7533 835.297 91.774 808.746 91.6864C807.55 91.6822 806.362 90.6942 805.223 89.8685Z" fill="#737475"></path>
        <path id="path_15" d="M805.206 87.7458C829.081 87.518 852.884 87.5614 876.694 87.57C900.981 87.5792 925.261 87.5536 949.869 87.533C949.862 88.1544 949.527 88.7858 948.694 89.5552C904.939 89.6926 861.682 89.694 818.425 89.6841C814.04 89.6834 809.655 89.6115 805.27 89.573C805.228 89.0491 805.192 88.5252 805.206 87.7458Z" fill="#A9A9AA"></path>
        <path id="path_14" d="M950.981 86.1278C950.81 86.4894 950.647 86.8503 950.013 87.3777C925.263 87.5535 900.976 87.5792 876.696 87.5699C852.886 87.5614 829.083 87.518 805.272 87.4895C805.23 87.1962 805.194 86.9029 805.287 86.3698C805.429 86.1292 805.678 86.1278 805.863 86.0609C806.198 85.7904 806.347 85.5875 806.497 85.3839C807.201 85.3213 807.906 85.2031 808.611 85.2031C855.612 85.2038 902.613 85.2145 950.013 85.4686C950.597 85.8516 950.789 85.9897 950.981 86.1278Z" fill="#D5D6D6"></path>
        <path id="path_13" d="M981.062 34.4291C980.208 37.321 978.393 38.3742 975.275 38.3675C932.21 38.2751 889.146 38.2819 846.081 38.3572C843.233 38.3622 841.76 37.6651 842.593 34.3733C844.294 34.182 845.597 34.2667 846.899 34.2669C889.964 34.2738 933.022 34.271 976.087 34.2794C977.745 34.2797 979.404 34.377 981.062 34.4291Z" fill="#939495"></path>
        <path id="path_12" d="M981.239 34.223C979.402 34.3767 977.744 34.2794 976.085 34.2791C933.027 34.2707 889.963 34.2735 846.898 34.2666C845.595 34.2664 844.292 34.1817 842.684 34.0793C842.741 33.3572 842.975 32.542 843.516 32.0815C843.858 31.7871 844.648 32.0129 845.239 32.0129C890.34 32.0124 935.44 32.0126 980.534 32.0127C980.99 32.0127 981.445 32.0127 982.079 32.0127C981.823 32.7945 981.623 33.4058 981.239 34.223Z" fill="#E4E4E4"></path>
        <path id="path_11" d="M990.272 18.6526C989.396 21.7226 987.453 22.703 984.207 22.6946C943.548 22.588 902.882 22.602 862.223 22.6734C859.383 22.6785 857.504 22.2848 858.365 18.7045C860.187 18.5544 861.611 18.6282 863.027 18.6286C905.444 18.641 947.862 18.6462 990.272 18.6526Z" fill="#919293"></path>
        <path id="path_10" d="M990.427 18.5101C947.861 18.6464 905.444 18.6412 863.027 18.6287C861.61 18.6283 860.186 18.5545 858.478 18.4272C858.151 18 858.115 17.6604 858.364 17.1301C858.813 16.7688 858.976 16.5982 859.147 16.4276C859.852 16.378 860.556 16.285 861.261 16.285C904.006 16.284 946.75 16.2907 989.929 16.5407C990.605 16.9272 990.84 17.0697 991.082 17.2123C990.919 17.5973 990.748 17.9824 990.427 18.5101Z" fill="#D9D9D9"></path>
        <path id="path_09" d="M222.798 168.642C233.684 168.642 244.215 168.642 255.126 168.642C254.957 170.755 254.81 172.586 254.632 174.818C253.048 174.818 251.658 174.818 250.267 174.818C176.517 174.819 102.768 174.819 29.0187 174.819C23.3826 174.819 23.3826 174.818 23.7645 168.642C89.9705 168.642 156.206 168.642 222.798 168.642Z" fill="#B6B7B7"></path>
        <path id="path_08" d="M187.315 88.9714C188.627 92.3269 186.527 92.4252 184.12 92.4223C164.107 92.3981 144.095 92.4074 124.083 92.4074C91.3987 92.4074 58.7156 92.401 26.0323 92.4245C23.8665 92.4259 21.785 92.5583 22.8827 89.185C78.0244 88.9928 132.67 88.9821 187.315 88.9714Z" fill="#848586"></path>
        <path id="path_07" d="M187.358 88.6374C132.667 88.9819 78.0219 88.9926 23.0378 88.9883C22.6992 88.0573 22.6992 87.1419 22.6992 85.8805C23.986 85.8805 25.1445 85.8805 26.3028 85.8805C78.7828 85.8805 131.264 85.8727 183.744 85.9204C185.291 85.9218 187.995 84.7608 187.358 88.6374Z" fill="#D5D6D6"></path>
        <path id="path_06" d="M89.6883 19.0744C65.6098 19.0746 41.8871 19.0755 18.1644 19.0748C13.1936 19.0746 13.1936 19.072 13.0859 13.594C53.925 13.594 94.76 13.594 136.023 13.594C135.923 15.2125 135.819 16.9113 135.686 19.0745C120.323 19.0745 105.184 19.0745 89.6883 19.0744Z" fill="#C4C4C5"></path>
      </g>
      <g id="g_aubergine">
        <path id="path_05" d="M133.453 24.9706C137.315 24.9809 140.124 24.0622 141.45 19.4889L136.025 13.5944C135.926 15.2129 135.821 16.9117 135.689 19.0749H90.0472C65.6125 19.075 41.8897 19.0759 18.1669 19.0751C13.1962 19.075 13.1962 19.0724 13.0885 13.5944H136.025L134.758 8.90606C94.6043 7.34696 54.3475 8.4401 14.1338 8.51968C12.6165 8.52274 10.5183 8.99646 9.6904 10.0423C6.83865 13.6443 7.61467 17.9818 8.75152 21.9203C9.67268 25.1116 12.863 24.9203 15.6586 24.919C54.9235 24.9003 94.1886 24.8654 133.453 24.9706Z" fill="#242021"></path>
        <path id="path_05" d="M122.434 81.0747C143.657 81.0747 164.524 81.0718 185.391 81.0775C191.116 81.079 192.311 82.2627 192.338 87.8896C192.343 88.9566 192.35 90.0236 192.336 91.0907C192.277 95.9075 190.755 97.4657 185.941 97.4664C131.996 97.4771 78.0499 97.4764 24.1039 97.4671C19.2781 97.4664 17.7314 95.8969 17.6717 91.1113C17.5497 81.3381 17.8062 81.0747 27.4649 81.0747C59.0026 81.0747 90.5402 81.0747 122.434 81.0747ZM22.387 89.3666C21.7855 92.5584 23.8669 92.426 26.0328 92.4246C58.7161 92.4011 91.3993 92.4075 124.082 92.4082C144.095 92.4082 164.108 92.3983 184.121 92.4225C186.527 92.4253 188.628 92.3278 187.407 88.3046C187.998 84.7612 185.294 85.9222 183.747 85.9207C131.267 85.873 78.786 85.8816 26.3057 85.8816C25.1473 85.8816 23.9889 85.8816 22.7021 85.8816C22.7021 87.1429 22.7021 88.0583 22.387 89.3666Z" fill="#242021"></path>
        <path id="path_05" d="M67.6223 163.768C129.393 163.768 190.809 163.768 252.224 163.77C258.674 163.77 259.913 165.002 259.914 171.408C259.915 172.949 260.389 174.764 259.74 175.963C258.847 177.613 257.224 178.983 255.648 180.098C254.928 180.607 253.575 180.239 252.508 180.239C177.103 180.242 101.697 180.242 26.2918 180.242C23.5735 180.242 19.9868 180.752 19.435 177.415C18.8116 173.643 19.2782 169.556 20.0756 165.775C20.2848 164.783 23.4683 163.876 25.2964 163.855C39.2849 163.697 53.2761 163.768 67.6223 163.768ZM222.443 168.642C156.207 168.642 89.9713 168.642 23.7651 168.642C23.3832 174.818 23.3832 174.819 29.0193 174.819C102.769 174.819 176.518 174.819 250.267 174.818C251.658 174.818 253.049 174.818 254.632 174.818C254.811 172.586 254.958 170.755 255.127 168.642C244.215 168.642 233.685 168.642 222.443 168.642Z" fill="#242021"></path>
        <path id="path_05" d="M780.09 98.8368C779.628 101.155 775.292 102.526 775.292 102.526C772.352 104.663 769.754 106.07 767.768 108.083C756.116 119.881 744.285 131.532 733.138 143.797C723.137 154.801 713.449 165.964 699.623 172.959C702.949 172.959 706.277 173.047 709.598 172.933C712.496 172.834 714.887 173.639 715.862 176.517C716.895 179.565 714.852 181.318 712.666 182.972C705.876 188.116 698.302 192.547 692.56 198.685C683.358 208.521 675.318 219.452 666.908 230.016C658.881 240.1 650.187 249.485 638.917 255.979C636.093 257.606 632.535 258.725 629.301 258.756C605.462 258.986 581.619 258.792 557.78 258.956C553.073 258.988 550.537 257.284 548.627 252.937C531.579 214.111 514.311 175.382 497.182 136.593C496.236 134.45 495.032 133.93 492.739 133.58C485.55 132.481 482.052 135.196 479.209 142.058C469.918 164.483 459.739 186.54 449.58 209.05C447.899 209.361 446.541 209.361 445.041 209.361C445.858 207.526 446.527 206.031 447.192 204.534C457.845 180.532 468.537 156.548 479.085 132.501C480.114 130.156 481.315 129.337 483.808 129.478C487.592 129.693 491.407 129.696 495.19 129.477C497.697 129.331 498.838 130.197 499.865 132.526C517.292 172.027 534.866 211.463 552.288 250.967C553.511 253.741 554.862 254.819 558.005 254.796C579.001 254.636 600.028 254.062 620.985 254.981C631.847 255.457 639.972 251.721 647.438 244.821C648.483 243.855 649.656 242.999 650.57 241.923C657.772 233.437 665.395 225.256 671.988 216.317C682.593 201.94 694.598 189.215 709.899 179.803C710.685 179.32 711.307 178.574 712.004 177.95C711.883 177.631 711.755 177.312 711.634 176.993H596.598V172.367C597.456 172.314 598.03 172.249 598.606 172.249C624.941 172.243 651.277 172.156 677.612 172.283C689.325 172.339 700.153 169.364 708.914 161.732C717.252 154.473 724.812 146.278 732.326 138.132L732.398 138.054C745.567 123.769 757.902 108.641 774.694 98.2089C775.029 98.0053 775.164 97.4907 775.783 96.47H771.142L748.388 96.47C710.302 96.4701 672.214 96.4702 634.127 96.4678C629.779 96.4671 629.609 96.2201 630.97 91.8332L632.207 91.833C633.057 91.8329 633.925 91.8327 634.794 91.8332C668.603 91.8417 702.413 91.8588 736.22 91.8353C737.979 91.8339 739.772 91.6446 741.481 91.2659C750.322 89.3105 758.515 85.582 765.049 79.4533C773.584 71.446 781.307 62.5783 789.443 54.1435C797.408 45.8828 804.975 37.1414 813.645 29.6788C819.524 24.6137 826.991 21.3928 833.746 17.3447C834.957 16.6197 836.16 15.8828 837.37 15.1514C835.853 14.2573 834.615 14.1444 833.376 14.1451C772.872 14.1752 712.375 14.2341 651.872 14.1902C649.205 14.1883 647.988 15.0842 646.902 17.4458C625.405 64.198 603.819 110.909 582.245 157.626C581.636 158.944 580.975 160.237 580.086 162.054C579.422 160.527 579.044 159.679 578.681 158.823C558.496 111.24 538.285 63.6686 518.194 16.0463C516.944 13.0837 515.452 12.0897 512.199 12.1289C495.831 12.326 479.459 12.2872 463.088 12.1553C460.222 12.1323 458.787 12.9027 457.574 15.6749C436.713 63.3556 415.714 110.975 394.739 158.607C394.306 159.588 393.799 160.538 393.14 161.884C392.467 160.364 391.971 159.301 391.52 158.219C372.012 111.378 352.506 64.5368 333.01 17.6916L332.963 17.5792C332.161 15.6489 331.539 14.1533 328.641 14.1575C267.31 14.2466 205.979 14.1752 144.647 14.149C143.678 14.1486 142.709 14.3185 141.739 14.4089C145.565 17.447 149.608 19.6646 153.518 22.0958C158.434 25.1521 163.894 27.7129 167.961 31.676C176.941 40.4266 185.082 50.0302 193.781 59.0787C200.995 66.582 208.03 74.3787 216.03 80.9716C225.156 88.4926 235.899 92.1656 248.205 91.9983C279.636 91.5712 311.076 91.8417 342.514 91.8332C343.778 91.8325 345.041 91.8332 346.479 91.8332V96.8202H203.664C203.58 97.1006 203.495 97.3818 203.411 97.6623C216.86 105.273 226.873 116.74 237.299 127.677C245.231 135.996 252.425 145.017 260.307 153.386C272.429 166.256 287.041 173.092 305.236 172.384C322.174 171.725 339.158 172.243 356.122 172.243C363.359 172.243 370.596 172.257 377.832 172.233C379.465 172.227 380.943 172.126 380.852 174.521C380.764 176.834 379.313 176.82 377.68 176.758C376.85 176.726 376.02 176.75 375.189 176.753C340.433 176.876 305.677 176.997 270.921 177.131C269.64 177.136 268.36 177.256 266.751 177.339C267.256 178.229 267.322 178.489 267.488 178.613L267.519 178.636C268.363 179.264 269.21 179.894 270.097 180.457C283.995 189.28 295.541 200.534 305.074 213.936C308.714 219.053 312.595 224.005 316.513 228.914C323.952 238.235 332.197 246.734 342.639 252.734C344.577 253.848 347.013 254.582 349.236 254.626C359.315 254.824 369.405 254.875 379.483 254.625C383.018 254.537 384.44 255.822 384.512 259.12C372.895 259.04 361.273 259.138 349.666 258.763C346.521 258.661 343.077 257.724 340.361 256.15C326.739 248.254 316.866 236.41 307.492 224.08C302.329 217.287 297.147 210.497 291.716 203.919C284.688 195.41 275.64 189.242 266.603 183.111C264.351 181.584 262.213 179.983 263.036 176.856C263.938 173.434 266.662 172.868 269.744 172.94C272.874 173.014 276.007 172.956 278.967 172.956C273.188 168.77 266.934 165.218 261.918 160.382C253.915 152.669 246.918 143.925 239.164 135.939C229.676 126.166 219.922 116.645 210.107 107.198C207.839 105.015 204.598 103.852 202.295 101.695C200.868 100.359 199.569 98.0075 199.636 96.1625C199.731 93.5209 202.102 92.4212 204.819 92.4389C211.761 92.4838 218.704 92.4539 226.735 92.4539C224.088 91.0053 222.366 90.0857 220.666 89.1283C208.323 82.1802 199.131 71.7856 190.128 61.1885C181.688 51.2534 173.837 40.6832 163.117 33.0243C156.325 28.1722 148.952 24.1336 141.45 19.489L136.025 13.5945L134.758 8.90615C156.131 9.73599 177.464 9.4381 198.808 9.89729C220.151 10.3565 241.51 10.0085 262.864 10.0223C284.334 10.0362 305.805 10.0573 327.276 10.0807C334.038 10.088 334.383 10.3313 336.987 16.5836C355.158 60.2094 373.331 103.834 391.507 147.458C391.99 148.616 392.52 149.754 393.318 151.552C397.423 142.241 401.241 133.592 405.05 124.938C421.557 87.4242 438.079 49.9159 454.537 12.3795C455.863 9.3551 457.968 8.04507 461.153 8.04785C478.947 8.06343 496.741 8.07589 514.534 8.03567C517.957 8.02791 519.901 9.60573 521.227 12.7414C539.858 56.8175 558.568 100.86 577.26 144.911C578.172 147.06 579.093 149.206 580.288 152.004C585.191 141.383 589.788 131.434 594.381 121.482C610.813 85.8774 627.26 50.2795 643.648 14.6543C645.114 11.4673 647.261 10.0386 650.828 10.0398C712.275 10.0607 773.726 10.0168 835.17 9.94932C838.053 9.94619 840.48 10.5638 841.263 13.6308C842.082 16.8312 840.245 18.6845 837.555 20.0779L836.616 20.5632C826.509 25.7846 816.345 31.0357 808.377 39.3526C800.839 47.2226 793.728 55.5095 786.646 63.8034C777.036 75.0671 766.8 85.5229 753.14 92.4503C759.888 92.4503 766.643 92.3336 773.384 92.5308C775.114 92.5813 777.121 93.2554 778.431 94.3324C779.413 95.1403 780.456 96.9983 780.09 98.8368Z" fill="#242021"></path>
        <path id="path_05" d="M979.048 38.3575L975.984 43.5175C933.638 43.5174 887.075 43.5092 844.729 43.5065C838.643 43.5061 837.276 42.1134 837.262 35.9428C837.262 34.7567 837.198 33.5644 837.29 32.3854C837.561 29.0134 839.369 27.1873 842.771 27.0878C846.558 26.9771 850.359 27.0625 853.911 27.0625C853.598 24.0167 853.078 21.0781 853.05 18.1342C852.993 12.9716 854.723 11.38 859.905 11.3792C900.236 11.3732 940.568 11.3759 980.899 11.3759C984.103 11.3759 987.327 11.5877 990.502 11.3062C992.879 11.0959 995.85 10.1108 995.85 10.1108L991.699 17.1776L989.498 16.297L978.534 16.2955C939.444 16.29 900.354 16.2844 861.264 16.2853C860.56 16.2853 859.855 16.3783 858.709 16.397C858.574 16.6136 858.431 16.8302 858.082 17.3213C858.118 17.6607 858.154 18.0003 857.969 18.8947C857.506 22.2853 859.385 22.6789 862.225 22.6739C902.884 22.6025 947.58 22.8037 988.239 22.9102L982.902 31.9043L964.976 32.0132H964.888H964.803H964.72C924.436 32.0131 885.97 32.0129 845.241 32.0134C844.65 32.0134 843.86 31.7877 843.512 32.0819C842.978 32.5424 842.736 33.3577 842.195 34.6102C841.761 37.6654 843.234 38.3624 846.081 38.3575C889.146 38.2821 935.983 38.2651 979.048 38.3575Z" fill="#242021"></path>
        <path id="path_05" d="M808.143 96.8071C852.154 96.7965 900.296 96.7897 944.308 96.7897L944.505 98.124L948.884 90.2172L947.124 91.6997C928.396 91.6983 907.135 91.754 888.407 91.754C861.849 91.754 835.298 91.7746 808.748 91.6863C807.552 91.6828 806.363 90.6941 805.167 90.1638C805.231 89.0491 805.196 88.5259 805.153 88.002C805.231 87.1969 805.196 86.9036 805.153 86.6104C805.224 85.9114 805.274 85.6565 805.324 85.4017C805.865 85.3455 805.997 85.3191 806.123 85.2938L806.128 85.2928C807.203 85.3213 807.908 85.2031 808.612 85.2038C852.261 85.2045 895.91 85.2131 939.558 85.2218L949.616 85.2237C950.389 85.4289 951.177 85.6706 951.177 85.6706L954.043 79.7405C954.043 79.7405 953.069 80.1445 952.461 80.2842C951.747 80.4484 950.684 80.4154 950.684 80.4154C903.234 80.3222 855.784 80.3485 808.335 80.3499C807.153 80.3506 805.907 80.1513 804.797 80.4425C803.608 80.7543 801.665 81.4191 801.565 82.1366C801.039 86.0053 800.291 90.0605 800.967 93.8111C801.572 97.1837 805.267 96.8079 808.143 96.8071Z" fill="#242021"></path>
        <path id="path_05" d="M933.93 115.463L937.883 108.996C937.883 108.996 937.142 109.716 936.252 109.984C935.312 110.348 933.693 110.318 933.693 110.318C883.773 110.243 833.853 110.258 783.934 110.288L783.774 110.288C781.639 110.291 779.753 110.294 780.246 107.247C780.396 105.839 780.396 105.029 780.396 104.074V104.073H940.404L944.505 98.124C944.505 98.124 943.566 98.3217 942.776 98.5194C941.688 99.0136 940.462 98.9597 940.462 98.9597C887.909 99.0045 832.949 99.0022 780.396 98.9936C780.396 98.9936 776.822 99.1122 776.138 100.101C775.353 101.235 775.292 102.526 775.292 102.526C775.292 104.598 775.285 105.655 775.292 106.713C775.328 114.632 776.153 115.463 784.033 115.463H929.216H933.93Z" fill="#242021"></path>
        <path id="path_05" d="M908.065 160.391C908.065 160.391 907.973 160.551 907.797 160.793L908.065 160.391Z" fill="#242021" fill-rule="evenodd" clip-rule="evenodd"></path>
        <path id="path_05" d="M730.855 179.982C784.469 179.974 838.083 179.976 891.697 179.976H896.347L901.166 172.251C901.166 172.251 900.886 172.632 900.672 172.844C899.787 173.722 898.929 173.78 897.707 174.03C896.808 174.214 895.363 174.197 895.363 174.197C841.158 174.198 786.953 174.198 732.755 174.199H728.491C728.192 172.26 727.929 170.472 727.566 168.094C764.573 168.094 865.798 168.098 902.945 168.1L907.797 160.793C907.371 161.379 906.448 162.442 905.119 162.862C904.027 163.307 902.132 163.307 902.132 163.307C845.315 163.198 788.498 163.225 731.68 163.24C730.15 163.241 728.555 163.199 727.103 163.596C725.936 163.915 724.078 164.781 724 165.554C723.608 169.448 723.01 173.539 723.822 177.27C724.484 180.308 728.1 179.983 730.855 179.982Z" fill="#242021"></path>
      </g>
      <g id="g_white">
        <path id="path_04" d="M384.721 259.245C384.437 255.821 383.016 254.537 379.48 254.625C369.402 254.875 359.313 254.824 349.233 254.626C347.01 254.581 344.574 253.847 342.637 252.734C332.194 246.733 323.95 238.235 316.511 228.914C312.592 224.005 308.711 219.053 305.071 213.936C295.539 200.533 283.992 189.28 270.095 180.457C269.196 179.887 268.339 179.248 267.485 178.613C267.319 178.489 267.254 178.229 266.748 177.339C268.357 177.256 269.638 177.135 270.919 177.13C305.675 176.997 340.43 176.875 375.186 176.753C376.017 176.749 376.848 176.726 377.677 176.757C379.311 176.82 380.762 176.834 380.849 174.521C380.94 172.125 379.463 172.227 377.829 172.232C370.593 172.256 363.356 172.243 356.12 172.243C339.156 172.243 322.172 171.725 305.234 172.384C287.039 173.091 272.426 166.256 260.304 153.385C252.422 145.016 245.229 135.996 237.297 127.677C226.87 116.74 216.857 105.273 203.408 97.6621C203.493 97.381 203.577 97.1005 203.662 96.82C251.174 96.82 298.687 96.82 346.476 96.82C346.476 94.9366 346.476 93.6033 346.476 91.8323C345.039 91.8323 343.775 91.8323 342.511 91.8323C311.074 91.8416 279.633 91.5711 248.202 91.9982C235.896 92.1655 225.153 88.4918 216.027 80.9707C208.028 74.3786 200.992 66.5816 193.779 59.0784C185.08 50.0299 176.938 40.4263 167.958 31.6757C163.892 27.7126 158.431 25.1517 153.515 22.0954C149.605 19.6642 145.563 17.4467 141.736 14.4085C142.706 14.3181 143.675 14.1483 144.645 14.1487C205.976 14.1748 267.307 14.2463 328.638 14.1572C331.592 14.1529 332.182 15.7069 333.007 17.6913C352.504 64.5364 372.009 111.377 391.517 158.218C391.968 159.3 392.464 160.364 393.137 161.883C393.796 160.538 394.304 159.588 394.737 158.606C415.712 110.975 436.71 63.3552 457.572 15.6745C458.785 12.9023 460.219 12.1319 463.086 12.155C479.456 12.2869 495.829 12.3257 512.197 12.1286C515.45 12.0893 516.941 13.0833 518.191 16.046C538.283 63.6682 558.494 111.24 578.679 158.823C579.041 159.678 579.419 160.527 580.084 162.054C580.972 160.237 581.634 158.944 582.243 157.626C603.816 110.909 625.402 64.1977 646.899 17.4455C647.986 15.0839 649.203 14.1879 651.87 14.1898C712.372 14.2338 772.869 14.1748 833.373 14.1447C834.612 14.1441 835.85 14.257 837.367 15.1511C836.156 15.8825 834.954 16.6193 833.743 17.3444C826.988 21.3925 819.521 24.6134 813.642 29.6785C804.979 37.141 797.405 45.8825 789.44 54.1432C781.304 62.5779 773.581 71.4459 765.046 79.4531C758.512 85.5812 750.319 89.3104 741.478 91.265C739.769 91.6444 737.976 91.8331 736.217 91.8345C702.41 91.8587 668.6 91.8416 634.791 91.8323C633.496 91.8323 632.2 91.8323 630.967 91.8323C629.606 96.22 629.777 96.467 634.124 96.4677C679.797 96.4705 725.469 96.4691 771.139 96.4691C772.506 96.4691 773.872 96.4691 775.78 96.4691C775.161 97.4899 775.026 98.0045 774.691 98.2088C757.899 108.64 745.564 123.769 732.395 138.054C724.857 146.226 717.276 154.449 708.912 161.732C700.15 169.363 689.323 172.339 677.61 172.283C651.275 172.156 624.938 172.243 598.603 172.248C598.028 172.248 597.454 172.314 596.594 172.367C596.594 173.818 596.594 175.128 596.594 176.993C635.149 176.993 673.39 176.993 711.631 176.993C711.752 177.312 711.88 177.631 712.001 177.95C711.304 178.574 710.682 179.32 709.897 179.803C694.595 189.215 682.591 201.94 671.985 216.317C665.392 225.255 657.769 233.437 650.567 241.923C649.653 242.999 648.481 243.855 647.436 244.821C639.969 251.721 631.845 255.457 620.982 254.981C600.025 254.062 578.998 254.636 558.002 254.796C554.86 254.819 553.508 253.74 552.285 250.966C534.863 211.463 517.289 172.026 499.863 132.525C498.835 130.196 497.694 129.331 495.187 129.476C491.404 129.696 487.589 129.692 483.805 129.477C481.313 129.337 480.111 130.156 479.083 132.501C468.534 156.548 457.842 180.532 447.189 204.534C446.525 206.031 445.856 207.526 445.038 209.36C446.538 209.36 447.897 209.36 449.551 209.307C453.487 209.496 457.127 209.74 461.415 210.026C461.415 206.857 461.378 204.072 461.423 201.288C461.505 196.165 463.152 194.503 468.326 194.476C477.103 194.432 485.881 194.508 494.659 194.443C497.843 194.419 500.016 195.599 501.434 198.56C506.496 209.131 511.777 219.599 516.72 230.223C517.518 231.939 517.65 234.484 517.014 236.261C512.91 247.724 508.468 259.066 504.228 270.482C503.107 273.502 500.994 274.673 497.961 274.671C487.878 274.665 477.795 274.705 467.713 274.653C463.401 274.631 461.638 272.957 461.432 268.675C461.286 265.635 461.404 262.582 461.404 259.386C452.268 259.386 443.677 259.386 434.648 259.386C435.045 260.901 435.294 262.14 435.691 263.33C445.051 291.355 454.475 319.36 463.728 347.42C464.685 350.321 466.049 351.184 468.989 351.085C475.862 350.855 482.748 350.895 489.625 351.024C491.912 351.067 492.912 350.235 493.733 348.142C501.38 328.654 509.193 309.231 516.836 289.742C518.234 286.177 520.314 284.553 524.278 284.626C534.95 284.822 545.628 284.681 556.304 284.698C562.292 284.707 564.297 287.621 562.036 293.104C543.639 337.717 525.188 382.309 506.875 426.958C505.294 430.813 503.145 432.331 498.901 432.263C484.196 432.025 469.485 432.172 454.776 432.171C448.232 432.171 448.178 432.19 445.879 425.905C433.692 392.596 421.547 359.271 409.363 325.961C401.241 303.756 393.077 281.566 384.721 259.245ZM813.976 27.0606C819.856 23.3926 825.735 19.7246 831.9 15.8777C772.121 15.8777 712.806 15.9041 653.495 15.8027C650.401 15.7974 648.996 16.7979 647.725 19.5658C625.997 66.8796 604.15 114.139 582.318 161.404C581.713 162.714 580.984 163.965 580.026 165.789C579.159 164.013 578.598 162.984 578.142 161.91C557.67 113.665 537.186 65.4254 516.807 17.1411C515.753 14.6445 514.481 13.8844 511.841 13.906C496.183 14.0342 480.522 14.0834 464.866 13.8802C461.424 13.8355 459.763 14.7604 458.333 18.0326C437.39 65.9499 416.276 113.793 395.194 161.649C394.663 162.855 394.013 164.008 393.07 165.878C392.072 163.682 391.411 162.331 390.833 160.944C371.166 113.771 351.477 66.6066 331.927 19.3847C330.768 16.5847 329.378 15.8123 326.484 15.8141C267.883 15.8514 209.282 15.7827 150.681 15.7353C149.563 15.7343 148.446 15.7352 146.792 15.7352C149.86 17.6846 152.441 19.2259 154.918 20.9196C160.673 24.8531 167.063 28.1637 171.953 32.9872C181.133 42.0444 189.224 52.1957 198.17 61.5052C204.879 68.4866 211.768 75.4435 219.399 81.3494C227.577 87.6775 237.208 90.5233 247.923 90.4066C279.355 90.0656 310.794 90.2621 342.23 90.2486C343.297 90.2486 344.464 89.9795 345.406 90.3233C346.439 90.7013 347.75 91.4615 348.098 92.3755C349.533 96.1395 347.986 98.1939 343.986 98.1946C300.094 98.1981 256.201 98.1967 212.309 98.1967C211.104 98.1967 209.897 98.1967 208.356 98.1967C213.012 102.121 217.489 105.316 221.268 109.191C231.114 119.288 240.658 129.68 250.317 139.96C255.268 145.229 259.965 150.764 265.2 155.734C274.981 165.017 286.452 170.633 300.288 170.601C325.793 170.542 351.297 170.564 376.802 170.552C377.514 170.552 378.228 170.593 378.937 170.546C381.394 170.385 382.354 171.737 382.471 173.973C382.649 177.385 381.518 178.556 377.991 178.56C343.471 178.604 308.951 178.642 274.432 178.691C273.45 178.693 272.468 178.801 270.93 178.892C272.573 180.1 273.659 180.993 274.835 181.748C287.509 189.889 297.488 200.748 306.299 212.803C308.747 216.152 311.28 219.441 313.792 222.742C322.019 233.548 330.828 243.788 342.681 250.821C344.691 252.013 347.269 252.754 349.605 252.806C359.327 253.023 369.058 252.903 378.785 252.89C379.904 252.889 381.023 252.786 382.521 252.71C380.505 247.211 378.458 242.177 376.867 237.003C376.294 235.142 376.188 232.677 376.927 230.938C403.484 168.44 430.177 106 456.793 43.5262C458.091 40.4789 460.073 39.1777 463.325 39.1909C479.933 39.2585 496.541 39.2716 513.148 39.2284C516.415 39.2198 518.399 40.5777 519.671 43.602C536.691 84.0621 553.778 124.493 570.822 164.942C572.985 170.076 571.018 173.076 565.532 173.114C555.094 173.187 544.653 173.098 534.218 173.313C530.332 173.393 528.197 171.849 526.607 168.349C519.658 153.051 512.443 137.875 505.456 122.594C504.476 120.45 503.392 119.622 500.976 119.673C492.794 119.843 484.605 119.83 476.423 119.684C473.901 119.639 472.733 120.549 471.73 122.838C459.579 150.582 447.309 178.274 435.082 205.985C434.669 206.921 434.378 207.91 433.885 209.277C435.575 209.277 436.883 209.088 438.115 209.312C441.986 210.017 443.815 208.437 445.4 204.785C456.147 180.044 467.22 155.445 478.082 130.752C479.032 128.593 480.077 127.665 482.511 127.783C486.89 127.996 491.297 128.028 495.672 127.778C498.59 127.613 500.006 128.603 501.204 131.324C518.466 170.522 535.889 209.649 553.164 248.841C554.463 251.789 555.901 253.03 559.347 252.996C579.749 252.796 600.195 252.129 620.542 253.198C631.949 253.797 640.095 249.446 647.772 242.334C648.381 241.77 649.04 241.244 649.566 240.608C657.871 230.573 666.322 220.653 674.401 210.438C682.385 200.345 690.754 190.733 701.647 183.622C703.749 182.249 705.686 180.622 708.27 178.684C706.532 178.684 705.6 178.685 704.667 178.684C669.435 178.643 634.204 178.552 598.973 178.642C595.521 178.651 594.545 177.053 594.507 174.258C594.469 171.415 596.109 170.502 598.892 170.51C625.227 170.584 651.562 170.494 677.898 170.59C688.453 170.628 698.403 168.202 706.429 161.461C714.642 154.561 722.287 146.864 729.455 138.865C741.022 125.958 752.511 113.025 765.986 102.037C767.452 100.844 768.982 99.742 771.011 98.1967C768.911 98.1967 767.609 98.1967 766.306 98.1967C722.294 98.1967 678.282 98.1967 634.271 98.1967C633.322 98.1967 632.25 98.4743 631.454 98.1248C630.409 97.6657 629.085 96.887 628.751 95.9388C627.556 92.5484 629.361 90.2514 632.945 90.2521C665.449 90.2599 697.955 90.0286 730.452 90.4201C742.353 90.5632 752.468 86.7229 761.821 79.9963C771.552 72.9955 779.062 63.7725 786.707 54.7035C794.964 44.9058 803.157 35.0454 813.976 27.0606ZM513.859 310.671C508.201 324.841 502.572 339.023 496.831 353.16C496.391 354.244 495.173 355.788 494.295 355.803C483.399 355.984 472.498 355.921 461.534 355.921C450.204 322.06 438.938 288.393 427.653 254.667C440.85 254.667 453.473 254.667 466.387 254.667C466.387 259.764 466.387 264.591 466.387 269.732C477.085 269.732 487.493 269.789 497.897 269.622C498.707 269.609 499.845 268.171 500.234 267.165C504.237 256.793 508.176 246.395 511.959 235.941C512.451 234.58 512.447 232.633 511.844 231.346C507.176 221.382 502.252 211.538 497.542 201.593C496.679 199.772 495.593 199.308 493.712 199.341C487.427 199.449 481.139 199.381 474.852 199.381C472.065 199.381 469.277 199.381 466.247 199.381C466.247 204.753 466.247 209.577 466.247 214.284C452.884 214.284 439.782 214.284 426.308 214.284C426.672 213.154 426.821 212.487 427.092 211.874C441.031 180.269 455.001 148.678 468.881 117.047C469.708 115.163 470.768 114.757 472.642 114.771C483.08 114.853 493.52 114.906 503.956 114.741C506.494 114.702 507.696 115.579 508.714 117.799C516.013 133.715 523.479 149.555 530.756 165.482C531.748 167.654 532.879 168.421 535.262 168.327C540.473 168.121 545.698 168.262 550.917 168.262C556.067 168.262 561.216 168.262 566.586 168.262C566.34 167.384 566.283 167.042 566.152 166.732C549.24 126.618 532.31 86.5136 515.454 46.3765C514.718 44.6222 513.783 44.2002 512.027 44.2056C496.251 44.2545 480.474 44.2595 464.699 44.1551C462.6 44.1412 461.585 44.7807 460.758 46.7226C434.539 108.331 408.248 169.909 382.062 231.531C381.457 232.955 381.44 235.017 381.973 236.482C404.783 299.175 427.7 361.83 450.528 424.516C451.345 426.759 452.33 427.609 454.799 427.587C469.27 427.459 483.742 427.458 498.213 427.588C500.684 427.611 501.681 426.699 502.57 424.537C520.654 380.558 538.818 336.612 556.957 292.656C557.329 291.754 557.592 290.807 557.976 289.673C546.549 289.673 535.519 289.727 524.492 289.621C522.571 289.603 521.827 290.387 521.207 291.997C518.867 298.068 516.418 304.097 513.859 310.671Z" fill="#F4F3F4"></path>
      </g>
      <g id="g_gray">
        <path id="path_03" d="M445.219 440.615C441.443 438.416 439.817 434.99 438.489 431.315C427.329 400.461 416.16 369.611 404.961 338.771C396.678 315.959 388.347 293.164 380.041 270.36C379.166 267.959 377.924 266.724 374.913 266.822C365.907 267.116 356.864 266.565 347.876 267.066C342.631 267.358 338.438 265.496 334.447 262.85C322.411 254.872 312.569 244.634 303.764 233.216C295.979 223.121 288.05 213.057 279.299 203.818C273.978 198.2 267.045 194.08 260.673 189.513C259.49 188.665 257.533 188.661 255.933 188.661L242.276 188.654C168.293 188.617 94.3091 188.58 20.326 188.728C13.6499 188.741 9.94722 185.455 9.96821 178.127C9.97975 174.094 9.96537 170.06 9.97113 166.027C9.98174 158.657 13.4168 155.183 20.7262 155.183C69.1288 155.178 117.532 155.18 165.934 155.18H244.145C241.236 151.629 238.765 148.301 235.975 145.267C228.707 137.363 221.583 129.292 213.845 121.868C208.804 117.031 202.429 113.592 197.331 108.803C193.87 105.551 190.218 106.074 186.391 106.073L177.051 106.069C124.644 106.045 72.2362 106.022 19.8289 106.106C12.9676 106.116 8.69506 103.093 9.19739 95.471C9.51657 90.6285 9.24793 85.7476 9.25967 80.883C9.27248 75.5651 12.2408 72.611 17.5806 72.611C73.1015 72.6075 128.622 72.6089 184.143 72.6089H188.444C185.286 68.7637 182.464 65.1014 179.403 61.6512C174.318 55.9194 169.455 49.9067 163.791 44.7972C158.885 40.3713 153.014 37.0081 147.517 33.2507C146.833 32.7829 145.821 32.5555 144.98 32.5959C140.407 32.8152 135.839 33.4041 131.269 33.4116C90.5773 33.479 49.886 33.4381 9.19454 33.4716C5.32207 33.4748 2.34657 32.1254 0.223297 28.5726C-2.94554e-08 18.999 0 9.52525 0 0C47.7066 0 95.4134 5.89107e-08 143.586 0.247342C145.759 0.805763 147.465 1.3875 149.172 1.38879C210.227 1.43503 271.282 1.42563 332.337 1.4288C338.176 1.4291 340.889 3.30092 342.967 8.34904C350.758 27.2777 358.579 46.1945 366.443 65.093C375.346 86.4879 384.308 107.858 393.337 129.463C393.766 128.919 394.134 128.601 394.314 128.199C398.074 119.769 401.851 111.346 405.548 102.888C412.748 86.4153 419.882 69.9131 427.08 53.4392C433.072 39.7247 438.969 25.965 445.224 12.3705C447.225 8.02196 448.094 2.82295 452.716 0C475.746 0 498.776 0 522.244 0.225568C524.229 2.08686 526.33 3.4668 527.224 5.40377C530.61 12.7284 533.59 20.2398 536.748 27.6703C543.016 42.4221 549.32 57.1591 555.576 71.9163C561.184 85.1454 566.725 98.4023 572.341 111.629C574.954 117.782 577.674 123.89 580.574 130.542C581.43 128.921 582.02 127.926 582.498 126.879C587.314 116.34 592.057 105.768 596.925 95.2539C606.361 74.8753 615.89 54.5398 625.326 34.1612C628.712 26.8465 632.017 19.4915 635.225 12.0965C639.419 2.43026 640.84 1.42636 651.371 1.4265C686.009 1.42692 720.651 1.08649 755.288 1.52375C789.953 1.96143 824.597 1.32454 859.291 2.43322C904.99 3.89338 991.994 2.13916 991.994 2.13916H1000L995.157 10.2589L991.105 11.3751C991.105 11.3751 988.277 11.6254 986.459 11.6426C984.285 11.6633 984.101 11.3754 980.898 11.3754L951.759 11.3751C921.141 11.3747 890.522 11.3742 859.903 11.3788C854.721 11.3796 852.992 12.9712 853.049 18.1338C853.084 21.0777 853.597 24.0163 853.91 27.0621C850.358 27.0621 846.557 26.9767 842.77 27.0874C839.375 27.1869 837.559 29.013 837.289 32.385C837.196 33.564 837.26 34.7562 837.26 35.9424C837.275 42.113 838.641 43.5057 844.727 43.5061H975.785L970.843 51.8688C970.843 51.8688 865.477 51.9631 837.488 51.9549C832.961 51.9537 830.149 49.8204 829.31 45.3259C828.69 42.0554 828.555 38.6957 828.092 34.2856C822.163 39.2167 816.233 43.277 811.379 48.3663C803.207 56.9442 795.733 66.1825 787.939 75.1266C785.113 78.3739 782.23 81.5742 779.66 84.4749C781.917 90.1103 785.889 91.6023 791.54 89.8854C791.54 87.0602 791.676 84.1154 791.512 81.1863C791.234 76.0149 795.861 71.7376 800.958 71.7768C832.498 72.0159 864.039 71.8971 895.58 71.8971C913.133 71.8971 930.686 71.9134 948.233 71.8586H951.175H959.477L956.518 77.0556C955.109 79.5512 953.55 80.4211 950.681 80.4154C903.232 80.3214 855.782 80.3485 808.332 80.3499C807.151 80.3499 805.905 80.1506 804.795 80.4424C803.606 80.7542 801.662 81.4191 801.563 82.1366C801.036 86.0046 800.289 90.0605 800.965 93.8104C801.57 97.1837 805.264 96.8078 808.14 96.8071C846.121 96.7979 884.097 96.7988 922.076 96.7996L940.168 96.8C941.549 96.8 942.93 96.7993 944.304 96.7993C944.382 97.2292 944.453 97.6584 944.524 98.0877C943.172 98.3909 941.812 98.9582 940.46 98.9596C887.906 99.0045 835.36 98.9988 782.806 98.9903C781.774 98.9903 780.742 98.8749 780.087 98.8358C779.489 97.0534 779.411 95.14 778.429 94.3321C777.119 93.2551 775.112 92.5811 773.382 92.5305C766.641 92.3333 759.886 92.4501 753.138 92.4501C766.798 85.5227 777.034 75.0661 786.643 63.8029C793.726 55.5091 800.837 47.2221 808.375 39.3522C816.342 31.0353 826.507 25.7843 836.613 20.5628L837.552 20.0775C840.243 18.6841 842.079 16.8308 841.261 13.6304C840.478 10.5634 838.051 9.94572 835.168 9.94892C773.724 10.0164 712.273 10.0603 650.826 10.0394C647.259 10.0382 645.112 11.4669 643.646 14.6539C627.258 50.2791 610.812 85.8772 594.379 121.482C590.918 128.981 587.455 136.479 583.859 144.264L580.285 152.003C579.091 149.206 578.17 147.06 577.257 144.91C558.566 100.86 539.856 56.8171 521.225 12.741C519.9 9.60533 517.956 8.02752 514.532 8.03527C496.739 8.07549 478.945 8.06304 461.151 8.04745C457.966 8.04467 455.86 9.35463 454.534 12.3791C438.077 49.9155 421.555 87.4239 405.047 124.938C401.24 133.592 397.42 142.24 393.315 151.552C392.519 149.753 391.988 148.616 391.506 147.458C373.329 103.834 355.157 60.209 336.985 16.5831C334.381 10.3309 334.036 10.0876 327.274 10.0802C305.803 10.0569 284.332 10.0358 262.861 10.0219C241.509 10.0081 220.149 10.3561 198.806 9.89689C177.462 9.4377 156.129 9.73559 134.755 8.90568C94.6026 7.34666 54.3454 8.4398 14.1316 8.51938C12.6143 8.52237 10.5162 8.99616 9.68826 10.0419C6.8365 13.644 7.61253 17.9815 8.74937 21.92C9.67053 25.1113 12.8608 24.92 15.6565 24.9186C54.9213 24.9 94.1862 24.8651 133.451 24.9703C137.312 24.9806 140.121 24.0619 141.448 19.4886C148.95 24.1332 156.323 28.1718 163.115 33.0239C173.836 40.6827 181.686 51.253 190.126 61.1881C199.129 71.7853 208.322 82.1793 220.663 89.1273C222.364 90.0847 224.086 91.0051 226.732 92.4536C218.701 92.4536 211.759 92.4835 204.818 92.4387C202.101 92.4209 199.729 93.5206 199.633 96.1615C199.567 98.0065 200.865 100.359 202.293 101.695C204.596 103.851 207.838 105.015 210.106 107.198C219.921 116.644 229.674 126.165 239.162 135.938C246.916 143.924 253.914 152.668 261.915 160.382C266.931 165.218 273.185 168.77 278.965 172.956C276.005 172.956 272.871 173.013 269.742 172.939C266.659 172.868 263.936 173.434 263.035 176.856C262.211 179.983 264.349 181.583 266.6 183.111C275.638 189.241 284.686 195.409 291.713 203.919C297.145 210.496 302.326 217.286 307.491 224.08C316.863 236.41 326.738 248.253 340.359 256.15C343.074 257.724 346.519 258.661 349.664 258.762C361.271 259.138 372.893 259.039 384.932 259.37C393.077 281.566 401.241 303.756 409.364 325.961C421.548 359.271 433.692 392.596 445.879 425.905C448.172 432.171 448.232 432.171 454.719 432.171H454.777C469.486 432.172 484.196 432.025 498.902 432.263C503.146 432.331 505.294 430.813 506.876 426.958C525.189 382.309 543.64 337.717 562.037 293.103C564.298 287.621 562.293 284.707 556.305 284.698C545.629 284.681 534.951 284.822 524.279 284.626C520.314 284.552 518.234 286.177 516.836 289.742C509.193 309.231 501.38 328.654 493.733 348.142C492.913 350.235 491.913 351.067 489.625 351.024C482.749 350.894 475.862 350.855 468.99 351.085C466.049 351.183 464.685 350.321 463.728 347.42C454.475 319.36 445.051 291.355 435.692 263.33C435.295 262.14 435.045 260.902 434.648 259.386H461.404C461.404 262.583 461.287 265.635 461.432 268.675C461.639 272.957 463.401 274.63 467.714 274.652C477.796 274.704 487.879 274.665 497.962 274.671C500.995 274.673 503.108 273.501 504.229 270.482C508.469 259.066 512.91 247.724 517.015 236.261C517.65 234.484 517.519 231.938 516.721 230.223C511.777 219.598 506.496 209.131 501.434 198.56C500.017 195.599 497.843 194.419 494.659 194.443C485.882 194.508 477.104 194.431 468.326 194.476C463.152 194.503 461.505 196.165 461.423 201.288C461.379 204.072 461.415 206.857 461.415 210.026C457.127 209.74 453.488 209.496 449.899 208.739C459.737 186.54 469.917 164.483 479.207 142.057C482.05 135.195 485.548 132.48 492.737 133.58C495.03 133.93 496.233 134.449 497.18 136.592C514.309 175.382 531.577 214.111 548.625 252.936C550.534 257.284 553.07 258.988 557.778 258.955C581.618 258.791 605.46 258.985 629.299 258.755C632.533 258.724 636.091 257.606 638.915 255.979C650.185 249.485 658.878 240.099 666.906 230.016C675.316 219.452 683.356 208.52 692.557 198.685C698.3 192.547 705.874 188.116 712.664 182.972C714.849 181.318 716.892 179.564 715.86 176.517C714.885 173.638 712.493 172.833 709.597 172.932C706.275 173.046 702.946 172.959 699.621 172.959C713.447 165.964 723.135 154.8 733.136 143.796C744.283 131.532 756.113 119.881 767.766 108.083C769.752 106.07 772.35 104.663 775.29 102.526C775.29 104.597 775.283 105.655 775.29 106.713C775.325 114.632 776.151 115.462 784.038 115.462C832.427 115.463 880.824 115.463 929.213 115.463H933.925L929.213 123.853H920.931C874.45 123.853 823.743 123.833 777.254 123.889C773.375 123.893 769.851 123.538 767.453 119.182L760.634 126.506C751.833 135.958 743.11 145.326 733.933 155.18H758.441C805.4 155.18 855.163 155.148 902.128 155.257H911.048L908.577 159.402C907.032 162.124 905.282 163.313 902.128 163.307C849.953 163.207 797.777 163.222 745.607 163.236L731.684 163.24C730.146 163.24 728.552 163.199 727.1 163.595C725.932 163.915 724.074 164.781 723.996 165.554C723.605 169.447 723.007 173.539 723.818 177.27C724.48 180.308 728.096 179.983 730.851 179.982C775.593 179.975 823.588 179.975 869.407 179.976L896.363 179.976L891.577 188.627H883.465C833.644 188.627 779.333 188.925 729.513 188.337C721.049 188.237 715.369 191.606 709.062 195.865C695.089 205.3 686.137 219.124 676.198 232.124C665.931 245.554 654.519 257.743 639.305 265.717C637.824 266.494 635.96 266.872 634.273 266.876C606.753 266.946 579.232 266.901 551.712 266.953C547.799 266.96 545.052 265.693 543.394 261.892C536.889 246.978 530.247 232.124 523.63 217.26C517.681 203.9 511.685 190.561 505.731 177.203C501.109 166.832 496.527 156.444 491.902 146.076C491.309 144.745 490.559 143.484 489.882 142.19C489.532 142.17 489.181 142.148 488.83 142.128C482.43 156.508 476.03 170.888 469.398 185.791C479.204 185.791 488.313 185.841 497.421 185.771C502.376 185.733 505.804 187.587 508.018 192.291C513.612 204.18 519.446 215.959 525.345 227.701C527.134 231.261 527.125 234.678 525.781 238.237C521.114 250.591 516.398 262.926 511.753 275.288C509.411 281.521 506.94 283.296 500.219 283.296L494.298 283.296C484.172 283.297 474.046 283.298 463.92 283.296C456.075 283.294 452.769 280.009 452.723 272.176C452.715 270.785 452.722 269.394 452.722 267.823H446.289C448.224 273.667 450.079 279.363 451.996 285.039C458.125 303.183 464.327 321.305 470.358 339.483C471.075 341.645 471.928 342.608 474.249 342.432C476.727 342.246 479.251 342.18 481.714 342.442C485.178 342.808 487.027 341.815 488.396 338.241C495.163 320.566 502.356 303.054 509.278 285.437C511.956 278.622 513.1 275.967 521.956 276.124C536.067 276.374 550.187 276.186 564.303 276.193C571.934 276.196 575.833 281.235 573.235 288.363C570.394 296.159 567.023 303.763 563.865 311.443L561.033 318.33C552.595 338.846 544.158 359.361 535.701 379.87C528.308 397.8 520.956 415.75 513.38 433.603C512.342 436.051 510.114 437.993 508.338 440.392C487.343 440.615 466.448 440.615 445.219 440.615ZM25.2966 163.855C35.9703 163.735 46.6455 163.748 57.3207 163.76C60.636 163.764 63.9514 163.768 67.2667 163.768C82.8319 163.768 98.3524 163.768 113.839 163.768C160.167 163.768 206.196 163.768 252.224 163.769C258.674 163.77 259.914 165.002 259.914 171.408C259.914 171.863 259.956 172.343 259.998 172.824C260.097 173.968 260.197 175.119 259.74 175.963C258.847 177.613 257.224 178.983 255.648 180.098C255.14 180.457 254.317 180.38 253.501 180.303C253.161 180.271 252.822 180.239 252.508 180.239C177.498 180.242 102.487 180.242 27.4765 180.242H26.2921C25.9792 180.242 25.6549 180.249 25.3249 180.256C22.7883 180.309 19.9236 180.368 19.4353 177.415C18.8118 173.643 19.2784 169.556 20.0759 165.775C20.2851 164.783 23.4686 163.876 25.2966 163.855ZM27.4639 81.0745H122.077C143.655 81.0745 164.522 81.071 185.389 81.0767C191.115 81.0788 192.31 82.2626 192.336 87.8895L192.338 88.2035C192.343 89.1658 192.347 90.1282 192.336 91.0905C192.276 95.9074 190.754 97.4655 185.94 97.4663C131.994 97.4769 78.0486 97.4762 24.1028 97.467C19.277 97.4655 17.7303 95.8967 17.6706 91.1111C17.5486 81.3379 17.805 81.0745 27.4639 81.0745Z" fill="#929497" fill-rule="evenodd" clip-rule="evenodd"></path>
      </g>
      <g id="g_blue">
        <path id="path_02" d="M813.776 27.2125C803.156 35.0457 794.963 44.9061 786.706 54.7038C779.061 63.7728 771.551 72.9956 761.821 79.9963C752.468 86.723 742.353 90.5633 730.451 90.4202C697.955 90.0294 665.447 90.26 632.944 90.2529C629.36 90.2515 627.556 92.5485 628.75 95.9389C629.084 96.8871 630.409 97.6658 631.454 98.1249C632.25 98.4751 633.321 98.1968 634.27 98.1968C678.281 98.1975 722.294 98.1975 766.305 98.1975C767.608 98.1975 768.911 98.1975 771.01 98.1975C768.982 99.7422 767.451 100.845 765.985 102.037C752.51 113.025 741.022 125.958 729.455 138.865C722.287 146.864 714.642 154.561 706.429 161.461C698.402 168.203 688.452 170.628 677.896 170.59C651.562 170.494 625.226 170.584 598.891 170.511C596.108 170.503 594.468 171.415 594.507 174.259C594.545 177.054 595.52 178.651 598.973 178.642C634.203 178.552 669.435 178.643 704.666 178.684C705.599 178.685 706.532 178.684 708.269 178.684C705.685 180.622 703.749 182.25 701.646 183.623C690.753 190.734 682.384 200.345 674.4 210.439C666.321 220.653 657.87 230.573 649.566 240.609C649.04 241.244 648.38 241.77 647.771 242.335C640.094 249.446 631.948 253.797 620.542 253.199C600.194 252.13 579.749 252.796 559.347 252.997C555.901 253.031 554.462 251.789 553.163 248.841C535.889 209.649 518.466 170.522 501.203 131.325C500.005 128.604 498.589 127.613 495.671 127.778C491.296 128.028 486.889 127.997 482.51 127.783C480.077 127.665 479.032 128.593 478.081 130.753C467.219 155.445 456.146 180.044 445.4 204.786C443.814 208.437 441.986 210.018 438.114 209.312C436.882 209.088 435.574 209.277 433.885 209.277C434.377 207.911 434.668 206.921 435.081 205.985C447.309 178.275 459.578 150.582 471.73 122.838C472.732 120.55 473.9 119.64 476.422 119.684C484.604 119.831 492.794 119.844 500.976 119.673C503.391 119.622 504.476 120.45 505.456 122.594C512.442 137.875 519.657 153.052 526.606 168.349C528.196 171.85 530.331 173.393 534.217 173.313C544.652 173.098 555.093 173.188 565.532 173.114C571.018 173.076 572.984 170.076 570.821 164.942C553.777 124.493 536.69 84.0622 519.671 43.6022C518.399 40.578 516.414 39.2201 513.147 39.2286C496.539 39.2719 479.932 39.2587 463.325 39.1912C460.072 39.178 458.091 40.4792 456.792 43.5265C430.177 106 403.483 168.44 376.926 230.938C376.187 232.678 376.294 235.142 376.866 237.003C378.458 242.177 380.504 247.211 382.521 252.711C381.022 252.786 379.903 252.889 378.784 252.89C369.057 252.903 359.327 253.023 349.604 252.806C347.269 252.754 344.69 252.014 342.68 250.821C330.828 243.788 322.018 233.548 313.792 222.742C311.278 219.441 308.746 216.153 306.299 212.804C297.488 200.749 287.508 189.89 274.834 181.749C273.658 180.994 272.572 180.1 270.929 178.892C272.467 178.801 273.449 178.693 274.431 178.691C308.951 178.642 343.47 178.604 377.99 178.561C381.517 178.556 382.649 177.385 382.47 173.974C382.353 171.737 381.393 170.385 378.936 170.547C378.227 170.594 377.513 170.552 376.801 170.552C351.297 170.564 325.792 170.542 300.287 170.601C286.451 170.633 274.98 165.017 265.199 155.734C259.964 150.764 255.267 145.229 250.316 139.96C240.658 129.68 231.114 119.288 221.266 109.192C217.487 105.316 213.011 102.122 208.355 98.1968C209.896 98.1968 211.103 98.1968 212.309 98.1968C256.201 98.1968 300.093 98.1982 343.985 98.1947C347.985 98.194 349.533 96.1397 348.097 92.3756C347.749 91.4616 346.439 90.7014 345.405 90.3241C344.463 89.9796 343.297 90.2487 342.229 90.2487C310.793 90.2629 279.355 90.0657 247.922 90.4074C237.207 90.5234 227.577 87.6783 219.398 81.3495C211.767 75.4436 204.878 68.4868 198.169 61.5054C189.222 52.196 181.133 42.0447 171.952 32.9875C167.063 28.1639 160.672 24.8533 154.918 20.9198C152.44 19.2263 149.858 17.6849 146.791 15.7354C148.445 15.7354 149.563 15.7346 150.68 15.7356C209.281 15.7829 267.882 15.8517 326.484 15.8144C329.378 15.8126 330.767 16.5851 331.926 19.385C351.476 66.6069 371.166 113.771 390.832 160.944C391.41 162.331 392.071 163.683 393.069 165.878C394.013 164.008 394.662 162.855 395.192 161.65C416.276 113.793 437.388 65.9502 458.331 18.0328C459.762 14.7607 461.423 13.8357 464.866 13.8804C480.521 14.0837 496.182 14.0344 511.84 13.9063C514.48 13.8847 515.752 14.6448 516.806 17.1414C537.185 65.4257 557.67 113.665 578.141 161.911C578.597 162.984 579.159 164.013 580.026 165.79C580.983 163.966 581.712 162.714 582.317 161.404C604.149 114.139 625.996 66.8798 647.724 19.5661C648.995 16.7981 650.401 15.7976 653.494 15.803C712.805 15.9043 772.121 15.8779 831.899 15.8779C825.735 19.7248 819.855 23.3929 813.776 27.2125Z" fill="#013E78"></path>
      </g>
      <g id="g_red">
        <path id="path_01" d="M513.932 310.406C516.417 304.097 518.865 298.068 521.205 291.996C521.825 290.387 522.569 289.603 524.489 289.621C535.517 289.726 546.546 289.672 557.974 289.672C557.59 290.806 557.328 291.754 556.955 292.656C538.816 336.612 520.653 380.558 502.568 424.537C501.679 426.699 500.682 427.61 498.211 427.588C483.74 427.457 469.267 427.459 454.797 427.587C452.328 427.609 451.343 426.759 450.527 424.516C427.697 361.83 404.781 299.175 381.971 236.483C381.438 235.018 381.455 232.955 382.06 231.53C408.246 169.908 434.538 108.331 460.756 46.7225C461.583 44.7805 462.598 44.1411 464.697 44.155C480.473 44.2594 496.249 44.2544 512.025 44.2055C513.782 44.2001 514.715 44.6221 515.452 46.3763C532.307 86.5134 549.239 126.618 566.15 166.732C566.281 167.042 566.339 167.384 566.585 168.261C561.215 168.261 556.065 168.261 550.916 168.261C545.696 168.262 540.471 168.121 535.26 168.327C532.877 168.421 531.746 167.654 530.753 165.482C523.477 149.555 516.012 133.715 508.712 117.798C507.695 115.579 506.492 114.701 503.953 114.741C493.517 114.906 483.077 114.853 472.64 114.771C470.766 114.757 469.706 115.163 468.879 117.047C454.999 148.678 441.03 180.27 427.09 211.874C426.82 212.487 426.669 213.153 426.306 214.284C439.78 214.284 452.882 214.284 466.244 214.284C466.244 209.577 466.244 204.753 466.244 199.381C469.275 199.381 472.063 199.381 474.85 199.381C481.138 199.381 487.425 199.449 493.71 199.341C495.591 199.308 496.677 199.773 497.539 201.593C502.25 211.538 507.174 221.382 511.843 231.346C512.445 232.633 512.45 234.58 511.957 235.941C508.175 246.395 504.235 256.793 500.232 267.165C499.843 268.171 498.705 269.609 497.895 269.623C487.491 269.788 477.084 269.732 466.385 269.732C466.385 264.591 466.385 259.764 466.385 254.667C453.471 254.667 440.847 254.667 427.651 254.667C438.936 288.393 450.202 322.061 461.532 355.921C472.497 355.921 483.397 355.984 494.293 355.803C495.171 355.788 496.388 354.244 496.829 353.159C502.57 339.023 508.199 324.841 513.932 310.406Z" fill="#E20C01"></path>
      </g>
    </g>
  </g>
</svg>