<svg class="we-svg-icon-walker-airsep-engineering-enterprise we-svg" width="1008" height="400" viewBox="0 0 1008 400" fill="none" xmlns="http://www.w3.org/2000/svg">
  <g id="Walker_Airsep_Engineering_Enterprise_Icon">
    <g id="g_ICON">
      <g id="g_red">
        <path id="path_02" d="M4 6.87295V3.88496V0.896973H63.5293H123.059V3.88496V6.87295H63.5293H4ZM843.746 6.87243C843.746 9.26282 844.632 9.26282 923.287 9.26282C967.111 9.26282 1003.21 8.90426 1003.71 8.5457C1004.09 8.18714 1004.09 7.11147 1003.71 6.15531C1003.21 4.72108 990.543 4.48204 923.414 4.48204C844.632 4.48204 843.746 4.48204 843.746 6.87243ZM828.547 24.8003V21.8123V18.8244H907.835H986.996L986.616 21.4538L986.236 24.2027L907.455 24.5613L828.547 24.8003ZM445.394 37.4697C443.621 41.1748 442.228 44.4018 442.228 44.5213C442.228 44.7604 432.855 65.5567 421.456 90.7753C376.999 189.02 368.766 207.546 368.766 208.98C368.766 210.534 371.806 218.661 409.803 316.906C412.532 323.988 415.177 330.85 417.685 337.355L417.746 337.512C429.639 368.367 438.428 391.17 438.428 391.367C438.428 391.606 449.321 391.606 462.746 391.486L487.065 391.128L494.411 374.395C508.85 342.125 543.554 262.525 543.554 261.808C543.554 261.569 535.702 261.569 526.202 261.688L508.723 262.047L495.931 292.285C488.965 308.898 482.632 323.002 481.872 323.719C481.112 324.436 474.019 324.675 464.266 324.555L447.927 324.197L431.209 277.584C422.089 251.888 414.49 230.255 414.49 229.418C414.363 228.342 419.049 227.984 433.995 227.984H453.627V235.155V242.446L469.586 242.087L485.545 241.728L491.751 226.31C495.171 217.825 497.957 209.936 497.957 208.741C497.957 207.426 494.411 199.777 490.105 191.53L482.125 176.59H467.939H453.627V183.761V190.933H433.362C417.91 190.933 413.097 190.574 413.097 189.379C413.223 188.662 422.723 167.507 434.502 142.527L455.654 97.1099H474.906H494.158L502.517 113.843C505.388 119.803 508.737 126.565 511.326 131.792L511.328 131.796C512.735 134.638 513.918 137.026 514.676 138.583L518.729 146.71H535.575H552.42L551.28 143.961C551.13 143.62 550.621 142.487 549.828 140.724L549.826 140.72L549.816 140.698C547.273 135.039 541.834 122.937 535.955 109.659C528.102 92.2096 518.096 69.8594 513.79 60.0588C513.207 58.7554 512.62 57.4416 512.037 56.1355L512.034 56.13L512.032 56.1246C508.177 47.4937 504.47 39.1958 503.15 36.394L500.617 30.7766H474.526H448.561L445.394 37.4697ZM714.165 149.578C713.785 150.534 713.785 151.61 714.165 151.968C714.671 152.327 754.442 152.685 802.825 152.685C889.713 152.685 890.599 152.685 890.599 150.295C890.599 147.905 889.713 147.905 802.699 147.905C728.477 147.905 714.671 148.144 714.165 149.578ZM853.872 91.7311C767.364 91.7311 766.477 91.7311 766.477 89.3407C766.477 86.9503 767.364 86.9503 853.872 86.9503C940.379 86.9503 941.266 86.9503 941.266 89.3407C941.266 91.7311 940.379 91.7311 853.872 91.7311ZM790.55 71.4126C790.55 73.803 791.436 73.803 873.511 73.803C955.585 73.803 956.472 73.803 956.472 71.4126C956.472 69.0222 955.585 69.0222 873.511 69.0222C791.436 69.0222 790.55 69.0222 790.55 71.4126ZM126.857 152.686C12.4853 152.686 11.5987 152.686 11.5987 150.295C11.5987 147.905 12.4853 147.905 126.857 147.905C241.23 147.905 242.116 147.905 242.116 150.295C242.116 152.686 241.23 152.686 126.857 152.686ZM11.9836 69.859C11.097 70.0981 10.337 71.4128 10.337 72.7275C10.337 74.9984 12.3636 74.9984 91.9048 74.9984C139.655 74.9984 173.853 74.5203 174.233 73.9227C174.739 73.3251 174.613 72.0104 174.233 70.9347C173.473 69.2614 165.493 69.0224 93.4247 69.1419C49.4744 69.1419 12.7435 69.5005 11.9836 69.859Z" fill="#EA3B42" fill-rule="evenodd" clip-rule="evenodd"></path>
      </g>
      <g id="g_blue">
        <path id="path_01" d="M436.282 22.6488C430.582 34.7203 415.89 66.2734 403.604 92.9263C391.192 119.579 380.806 141.571 380.552 141.929C380.299 142.168 379.539 141.69 378.906 140.734C377.766 139.061 322.543 14.2824 319.503 6.51366C318.743 4.72087 317.477 2.92807 316.59 2.68903C315.703 2.33048 273.653 2.21096 223.116 2.33048C151.301 2.56951 132.049 3.04759 134.582 4.12327C140.409 6.51366 155.101 16.0752 160.547 20.856C163.46 23.3659 171.693 31.8518 178.913 39.7401C196.012 58.3851 201.584 63.1659 212.35 68.6638L221.216 73.2055L277.959 73.5641L334.575 73.9227V76.7911V79.7791H263.52H192.465L199.811 85.038C208.297 91.0139 223.37 105.356 237.555 121.013C249.461 134.16 258.201 141.332 267.447 145.395L274.413 148.503L321.276 149.1L368.14 149.698V152.686V155.674L311.904 156.033L255.667 156.272L263.14 161.172C273.906 168.224 282.646 176.59 294.678 191.649C309.244 209.697 314.943 215.553 323.683 221.649L331.029 226.788H350.408H369.786L366.24 217.824L362.567 208.98L376.246 178.741C399.804 126.75 436.788 44.8794 440.968 35.1983L445.148 25.9953H474.533C496.951 25.9953 504.171 26.3539 504.677 27.4296C505.057 28.2662 513.163 46.4332 522.663 67.8272C532.289 89.2211 541.915 110.974 544.194 116.233C546.474 121.491 550.654 130.814 553.567 137.029C556.48 143.244 558.76 149.1 558.76 149.937C558.76 151.252 554.58 151.491 536.975 151.252L515.316 150.893L503.157 126.153L490.998 101.412L475.039 101.293H459.207L440.462 141.571C430.076 163.682 421.336 182.685 420.956 184C420.45 185.793 421.21 186.151 425.389 186.151H430.329L448.061 148.144L465.793 110.257L476.052 109.898C484.412 109.659 486.438 109.898 486.818 111.332C487.072 112.408 499.231 138.702 513.797 169.897L540.395 226.669L580.419 226.788H620.569L627.915 221.529C637.415 214.956 641.594 210.653 657.173 191.53C671.106 174.558 677.185 168.702 688.458 161.291L695.931 156.272L639.061 156.033L582.192 155.674V152.686V149.698L630.322 149.1L678.452 148.503L686.685 144.32C695.931 139.658 704.037 132.487 719.742 115.037C731.395 102.249 745.581 89.1016 754.067 83.3647L759.26 79.7791H687.571H615.756V76.7911V73.8031H670.852C721.769 73.8031 726.582 73.6836 732.788 71.5323C745.454 67.3491 754.953 59.8194 773.572 39.1425C792.191 18.5851 799.917 12.4896 817.142 4.24279C819.676 2.92807 803.463 2.68903 728.482 2.33048C656.16 2.09144 636.401 2.44999 635.135 3.52567C634.375 4.36231 630.069 12.3701 625.762 21.2146C615.756 42.1305 585.738 103.803 579.279 116.83C576.619 122.448 572.819 130.336 570.793 134.4C568.893 138.583 566.866 141.929 566.36 141.929C565.473 141.929 558.633 127.228 524.562 51.0944C516.71 33.6446 508.604 15.3581 506.324 10.4578L502.271 1.49384L474.279 1.13528L446.414 0.896241L436.282 22.6488Z" fill="#0053A1"></path>
      </g>
    </g>
  </g>
</svg>