<svg class="we-svg-logo-walker-arisep-engineering-enterprise we-svg" width="2008" height="437" viewBox="0 0 2008 437" fill="none" xmlns="http://www.w3.org/2000/svg">
  <g id="Walker_Airsep_Engineering_Enterprise_Logo">
    <g id="g_WALKER_ENGINEERING_ENTERPRISES">
      <path id="path_04" d="M926.908 241.849C926.632 242.758 924.017 255.487 920.989 270.165L915.758 296.791L921.127 297.181C924.155 297.441 926.77 297.441 927.045 297.051C927.458 296.661 938.607 243.278 938.607 241.2C938.607 239.511 927.596 240.161 926.908 241.849Z" fill="#0053A1"></path>
      <path id="path_04" d="M944.939 265.229C942.186 278.997 939.571 291.856 939.158 293.804C938.47 297.311 938.607 297.441 944.526 297.441H950.582L951.546 291.077C952.097 287.31 953.473 283.933 955.125 282.504C957.74 280.296 957.878 280.296 959.116 283.284C965.173 298.221 964.485 297.441 971.642 297.441H978.387L972.881 286.531C969.99 280.556 967.513 275.101 967.513 274.321C967.513 273.542 971.367 269.775 976.047 265.749L984.718 258.475H969.302L962.695 266.268C958.979 270.555 955.813 273.802 955.538 273.542C954.987 273.023 960.08 246.006 961.319 241.85C961.732 240.811 960.08 240.291 955.951 240.291H950.032L944.939 265.229Z" fill="#0053A1"></path>
      <path id="path_04" d="M1224.36 242.239C1219.95 246.525 1222.57 251.98 1229.17 251.98C1233.85 251.98 1236.19 249.253 1235.64 244.577C1235.37 241.59 1234.54 240.81 1230.96 240.55C1228.35 240.291 1225.73 240.94 1224.36 242.239Z" fill="#0053A1"></path>
      <path id="path_04" d="M1412.79 243.408C1409.49 248.084 1411.97 251.98 1418.44 251.98C1422.15 251.98 1423.53 251.331 1424.77 248.603C1426.97 244.187 1424.77 241.07 1419.26 240.55C1415.96 240.291 1414.58 240.94 1412.79 243.408Z" fill="#0053A1"></path>
      <path id="path_04" d="M1824.76 243.668C1822.42 248.603 1824.76 251.331 1831.37 251.331C1835.91 251.331 1836.87 250.811 1837.98 247.824C1839.77 243.148 1837.15 240.291 1831.09 240.291C1827.38 240.291 1826 240.94 1824.76 243.668Z" fill="#0053A1"></path>
      <path id="path_04" d="M804.542 261.981C804.817 272.632 805.505 284.841 805.918 289.257L806.744 297.44H819.545L826.978 280.165C830.969 270.813 834.824 261.851 835.374 260.422C836.062 258.864 836.613 265.877 836.613 277.567L836.751 297.44H849.964L859.187 277.567C864.142 266.787 869.785 254.447 871.712 250.291L875.291 242.758L868.959 243.147L862.49 243.537L859.049 251.98C857.26 256.656 853.543 265.618 851.066 272.112L846.523 283.802L846.386 263.28V242.758L839.916 243.147L833.309 243.537L826.427 259.903C822.573 268.995 818.857 277.957 817.893 280.035C816.654 283.152 816.379 280.035 816.242 263.28L816.104 242.888H803.854L804.542 261.981Z" fill="#0053A1"></path>
      <path id="path_04" d="M1078.59 269.126C1075.7 283.673 1073.5 296.012 1073.5 296.532C1073.5 297.051 1081.34 297.311 1091.12 297.181L1108.6 296.792L1109.01 292.505L1109.42 288.349H1086.99L1087.81 283.413C1089.74 273.672 1089.19 274.061 1100.34 274.061C1109.56 274.061 1110.39 273.802 1111.21 271.074C1112.87 265.229 1112.59 264.969 1101.72 264.969H1091.53L1092.22 260.683C1093.59 253.15 1093.46 253.28 1104.47 253.28C1114.38 253.28 1114.93 253.15 1116.17 249.903C1119.06 242.889 1118.92 242.889 1100.61 242.889H1083.68L1078.59 269.126Z" fill="#0053A1"></path>
      <path id="path_04" d="M1547.82 245.096C1547.41 246.394 1545.21 257.045 1542.87 268.865C1540.53 280.685 1538.32 291.855 1537.91 293.803L1537.09 297.44H1554.98C1573.97 297.44 1574.52 297.18 1574.52 290.816C1574.52 288.608 1573.42 288.348 1563.38 288.348H1552.36L1553.33 282.113C1553.74 278.736 1554.43 275.619 1554.84 274.97C1555.12 274.45 1560.07 274.06 1565.72 274.06C1572.87 274.06 1575.9 273.541 1575.9 272.372C1575.9 271.592 1576.31 269.514 1576.73 267.826C1577.55 265.098 1577.28 264.968 1567.09 264.968H1556.63L1557.46 261.331C1559.38 252.889 1558.83 253.278 1569.84 253.278C1579.62 253.278 1580.17 253.149 1581.41 249.901C1584.3 242.888 1584.16 242.888 1565.72 242.888C1550.57 242.888 1548.51 243.147 1547.82 245.096Z" fill="#0053A1"></path>
      <path id="path_04" d="M1645 249.513C1641.56 250.422 1640.32 251.721 1639.77 254.578C1639.22 257.176 1637.98 258.475 1635.91 258.734C1632.34 259.254 1630.82 266.268 1634.26 266.268C1636.88 266.268 1636.88 267.827 1634.54 280.555C1632.47 291.076 1633.3 295.103 1637.7 297.311C1641.42 299.259 1649.27 299.129 1651.33 297.181C1653.53 295.103 1653.39 289.648 1651.05 289.648C1647.06 289.648 1646.1 286.4 1647.61 278.477C1649.82 266.398 1649.95 266.268 1655.05 266.268C1659.04 266.268 1659.59 265.748 1660.14 262.371C1660.69 258.734 1660.41 258.475 1656.29 258.475C1651.88 258.475 1651.88 258.475 1652.57 253.279C1653.39 247.564 1652.98 247.434 1645 249.513Z" fill="#0053A1"></path>
      <path id="path_04" d="M888.367 258.604C877.218 262.501 869.923 271.983 869.372 283.023C869.097 290.557 871.575 295.492 876.805 297.441C881.76 299.389 886.302 298.35 891.671 294.064L895.938 290.686V294.064C895.938 297.181 896.488 297.441 901.443 297.441H906.949V291.206C906.949 287.829 908.188 279.516 909.564 272.762C911.078 266.008 911.629 259.903 911.078 259.254C909.289 257.565 892.909 257.046 888.367 258.604ZM898.002 271.723C896.763 278.867 892.359 287.829 889.468 288.868C886.302 290.037 882.448 288.608 881.485 285.751C880.246 281.984 883.137 273.541 886.991 269.645C889.193 267.437 891.671 266.268 894.561 266.268C898.966 266.268 898.966 266.268 898.002 271.723Z" fill="#0053A1"></path>
      <path id="path_04" d="M998.483 258.864C992.151 261.592 985.957 269.125 984.168 276.269C980.176 291.856 992.426 301.987 1009.91 297.571C1015 296.272 1015.69 295.622 1015.69 292.375V288.608L1007.7 289.258C1001.37 289.777 999.171 289.518 997.382 287.699C993.252 283.803 994.491 281.854 1001.24 281.854C1008.67 281.854 1018.03 278.607 1019.82 275.23C1022.3 270.944 1021.47 264.32 1017.89 261.202C1013.76 257.436 1004.26 256.396 998.483 258.864ZM1007.98 265.748C1011.01 266.787 1010.73 271.074 1007.57 272.762C1006.05 273.412 1003.03 274.061 1000.69 274.061C995.317 274.061 995.042 271.333 999.997 267.697C1003.99 264.709 1004.68 264.579 1007.98 265.748Z" fill="#0053A1"></path>
      <path id="path_04" d="M1046.66 261.202L1041.84 265.229V261.722C1041.84 258.605 1041.43 258.345 1036.75 258.734C1031.93 259.124 1031.52 259.384 1031.1 263.67C1030.97 266.138 1029.45 274.061 1028.08 281.075C1024.36 298.35 1024.22 297.7 1031.1 297.181L1037.02 296.791L1038.67 288.089C1041.15 275.23 1045.14 268.866 1050.93 268.866C1054.64 268.866 1054.92 268.476 1056.16 261.982C1056.98 257.695 1056.84 257.176 1054.37 257.176C1052.85 257.176 1049.41 258.994 1046.66 261.202Z" fill="#0053A1"></path>
      <path id="path_04" d="M1142.87 258.865C1141.22 259.644 1138.47 261.203 1136.82 262.242C1133.92 263.8 1133.65 263.8 1134.48 261.203C1135.16 258.735 1134.61 258.475 1129.8 258.475C1126.9 258.475 1124.43 258.735 1124.43 258.994C1124.43 259.254 1122.91 267.177 1120.99 276.659C1119.06 286.141 1117.55 294.713 1117.55 295.752C1117.55 297.051 1119.06 297.441 1123.19 297.181L1128.97 296.792L1131.31 285.621C1132.69 279.387 1134.75 272.892 1136.13 271.074C1139.16 266.658 1143.42 265.359 1146.18 267.957C1147.96 269.775 1147.96 271.204 1145.9 281.465C1144.66 287.699 1143.28 293.934 1142.87 295.103C1142.18 297.051 1143.15 297.441 1148.38 297.441C1155.4 297.441 1154.57 298.87 1158.15 280.686C1160.9 266.268 1160.77 264.06 1156.77 260.423C1153.19 256.916 1147.55 256.267 1142.87 258.865Z" fill="#0053A1"></path>
      <path id="path_04" d="M1181.55 260.293C1172.19 264.45 1168.06 270.554 1167.37 281.335C1166.82 289.128 1166.96 289.778 1171.09 293.674C1174.94 297.311 1176.18 297.701 1181 297.051C1184.03 296.661 1187.88 295.233 1189.4 293.934C1192.29 291.596 1192.29 291.596 1191.32 295.493C1189.81 301.597 1184.72 305.624 1178.52 305.624C1175.63 305.624 1171.91 305.234 1170.26 304.714C1167.79 303.935 1167.23 304.455 1166.41 307.832C1165.86 310.04 1165.86 312.248 1166.41 312.767C1166.82 313.157 1171.5 313.807 1176.73 314.066C1184.58 314.586 1187.06 314.066 1191.74 311.598C1199.03 307.832 1201.78 301.987 1205.5 282.504C1207.15 273.931 1208.8 265.359 1209.22 263.411C1209.9 260.293 1209.49 259.774 1204.67 258.605C1196.42 256.397 1188.98 256.916 1181.55 260.293ZM1195.45 272.243C1193.8 284.322 1187.06 291.336 1181.55 287.05C1177.28 283.673 1180.31 270.814 1185.95 267.697C1187.33 266.917 1190.22 266.268 1192.42 266.268C1196.28 266.268 1196.42 266.268 1195.45 272.243Z" fill="#0053A1"></path>
      <path id="path_04" d="M1258.77 260.422C1254.09 263.41 1253.81 263.41 1253.81 261.072C1253.81 258.993 1252.85 258.474 1248.58 258.474H1243.35L1240.32 274.97C1238.53 284.192 1236.88 292.894 1236.47 294.453C1235.64 297.18 1236.06 297.44 1241.84 297.44C1247.62 297.44 1248.17 297.18 1248.86 293.803C1249.27 291.855 1250.23 286.919 1251.06 282.893C1251.89 278.866 1253.95 273.541 1255.6 271.203C1259.18 266.397 1264.27 264.838 1265.79 268.345C1266.48 270.294 1265.24 280.555 1262.48 293.803C1261.8 297.31 1261.93 297.44 1267.85 297.44H1273.91L1276.25 286.01C1279.41 270.294 1279.28 263.02 1275.84 259.773C1271.98 256.136 1264.96 256.396 1258.77 260.422Z" fill="#0053A1"></path>
      <path id="path_04" d="M1299.51 259.904C1296.21 261.462 1292.08 264.84 1290.15 267.437C1283.82 276.529 1284.51 291.207 1291.53 295.493C1295.93 298.22 1305.98 299.259 1312.59 297.571C1319.19 295.882 1320.02 295.103 1319.06 291.336C1318.37 288.869 1317.54 288.609 1311.07 289.258C1302.81 290.038 1297.86 288.219 1297.86 284.452C1297.86 282.244 1298.82 281.855 1303.92 281.855C1316.72 281.855 1324.01 277.179 1324.01 268.996C1324.01 258.865 1311.35 254.189 1299.51 259.904ZM1312.17 268.087C1314.24 271.074 1309.97 274.061 1303.78 274.061C1298.69 274.061 1297.72 271.723 1301.71 268.606C1306.53 264.58 1309.83 264.45 1312.17 268.087Z" fill="#0053A1"></path>
      <path id="path_04" d="M1342.18 259.904C1332.27 264.58 1326.08 277.958 1329.52 287.57C1332.68 296.662 1342.04 300.299 1355.26 297.441C1362.14 296.013 1362.69 295.623 1362.28 292.506C1361.86 289.129 1361.59 288.999 1353.88 289.518C1347.69 289.778 1345.21 289.388 1343.14 287.57C1338.46 283.673 1339.98 282.245 1349.48 281.595C1359.39 280.816 1364.75 278.218 1366.82 273.152C1371.5 261.333 1356.22 253.15 1342.18 259.904ZM1353.47 265.749C1356.5 266.788 1356.22 271.074 1353.05 272.763C1350.16 274.192 1341.91 274.581 1341.91 273.282C1341.91 270.165 1345.35 267.048 1351.13 265.1C1351.27 264.97 1352.23 265.359 1353.47 265.749Z" fill="#0053A1"></path>
      <path id="path_04" d="M1392.28 260.422C1387.6 263.41 1387.33 263.41 1387.33 261.072C1387.33 258.993 1386.36 258.474 1381.96 258.474H1376.73L1375.77 266.657C1375.35 271.073 1373.98 278.866 1372.88 283.802C1369.85 297.44 1369.85 297.44 1376.87 297.44H1382.79L1384.99 287.049C1387.6 274.97 1390.36 270.294 1395.86 269.255C1400.54 268.345 1400.54 268.345 1401.78 261.981C1402.61 257.695 1402.47 257.175 1400.13 257.175C1398.61 257.175 1395.04 258.604 1392.28 260.422Z" fill="#0053A1"></path>
      <path id="path_04" d="M1448.17 259.774C1442.8 262.891 1442.25 263.021 1443.35 260.294C1444.04 258.605 1443.07 258.345 1438.12 258.735L1432.2 259.125L1429.31 274.062C1427.66 282.245 1426.01 290.947 1425.46 293.285L1424.49 297.571L1437.43 296.792L1439.91 285.492C1441.15 279.257 1443.35 272.633 1444.45 270.944C1446.93 267.437 1451.06 265.619 1453.4 266.918C1455.32 268.087 1455.05 275.75 1452.71 285.752C1449.96 297.701 1449.82 297.441 1456.84 297.441C1463.72 297.441 1462.89 298.87 1466.47 281.855C1469.36 268.087 1469.23 264.19 1465.1 260.424C1460.97 256.397 1454.5 256.137 1448.17 259.774Z" fill="#0053A1"></path>
      <path id="path_04" d="M1492.21 258.604C1485.61 260.422 1477.62 268.605 1475.56 275.749C1473.08 283.802 1474.46 290.037 1479.69 294.063C1484.37 297.83 1489.46 298.349 1495.1 295.622C1498.54 293.803 1498.82 293.933 1498.82 296.141C1498.82 297.44 1497.44 300.168 1495.65 302.116C1493.18 304.844 1491.25 305.623 1486.98 305.623C1483.95 305.623 1480.24 305.233 1478.59 304.714C1476.25 304.064 1475.42 304.584 1474.32 307.831C1472.39 312.897 1475.01 314.325 1486.43 314.325C1503.78 314.325 1508.32 309.52 1513.27 286.14C1519.05 258.344 1519.19 260.163 1513 258.604C1506.8 256.916 1498.41 256.916 1492.21 258.604ZM1503.5 272.372C1501.57 285.491 1493.31 293.024 1489.05 285.62C1485.19 278.607 1492.49 266.267 1500.47 266.267C1504.46 266.267 1504.46 266.267 1503.5 272.372Z" fill="#0053A1"></path>
      <path id="path_04" d="M1606.73 258.474C1605.08 259.124 1603.29 260.163 1602.74 260.942C1601.37 263.15 1598.89 262.63 1599.85 260.422C1600.4 258.864 1599.3 258.474 1594.48 258.474C1591.04 258.474 1588.29 258.994 1588.29 259.643C1588.29 260.293 1586.77 268.865 1584.85 278.477C1582.92 288.088 1581.41 296.401 1581.41 296.791C1581.41 297.18 1584.16 297.44 1587.46 297.44C1594.35 297.44 1594.07 297.83 1596.69 284.451C1598.75 273.931 1601.23 269.125 1605.63 267.306C1608.38 266.008 1609.35 266.137 1610.45 267.696C1612.1 270.164 1611.96 271.852 1609.62 283.542C1606.73 297.83 1606.6 297.44 1613.62 297.44H1619.67L1621.19 291.206C1624.08 278.217 1625.45 267.436 1624.63 264.319C1622.98 258.214 1614.58 255.487 1606.73 258.474Z" fill="#0053A1"></path>
      <path id="path_04" d="M1675.14 259.383C1672.53 260.682 1668.54 263.929 1666.2 266.657C1662.75 270.683 1661.93 273.021 1661.52 279.905C1661.1 286.27 1661.52 289.127 1663.31 291.725C1666.75 296.661 1674.18 299.129 1682.71 298.219C1693.17 297.05 1694.28 296.401 1694.28 291.465C1694.28 287.309 1694.14 287.179 1690.7 288.348C1684.92 290.426 1678.03 289.907 1675 287.049C1671.15 283.412 1672.66 281.854 1679.82 281.854C1696.2 281.854 1705.15 271.073 1696.62 261.591C1692.35 257.045 1682.02 255.876 1675.14 259.383ZM1685.19 265.748C1688.22 266.787 1687.94 271.073 1684.78 272.762C1683.26 273.411 1680.24 274.06 1677.9 274.06C1673.9 274.06 1673.77 273.801 1675.14 270.943C1676.38 268.475 1678.86 266.527 1682.85 265.098C1682.99 264.968 1683.95 265.358 1685.19 265.748Z" fill="#0053A1"></path>
      <path id="path_04" d="M1724.69 260.552C1720.57 263.799 1720.43 263.799 1720.43 261.202C1720.43 258.864 1719.6 258.474 1715.06 258.474C1709.28 258.474 1708.04 259.903 1708.04 266.267C1708.04 268.216 1706.8 275.619 1705.29 282.503C1703.77 289.387 1702.53 295.622 1702.53 296.271C1702.53 296.921 1705.29 297.44 1708.59 297.44C1715.47 297.44 1715.2 297.83 1717.81 284.581C1719.74 275.1 1724.42 268.865 1729.51 268.865C1733.09 268.865 1733.5 268.216 1734.74 261.332C1735.43 257.565 1735.16 257.175 1732.26 257.175C1730.34 257.175 1727.03 258.734 1724.69 260.552Z" fill="#0053A1"></path>
      <path id="path_04" d="M1756.63 259.773C1752.91 261.851 1752.09 261.981 1752.09 260.422C1752.09 258.994 1750.57 258.474 1746.72 258.474C1741.49 258.474 1741.35 258.604 1740.39 263.929C1739.84 267.047 1738.05 276.658 1736.26 285.491C1734.33 294.193 1732.54 304.324 1731.99 307.961L1731.03 314.455L1736.94 314.066C1743.41 313.676 1743.96 312.897 1745.89 302.246C1746.58 297.96 1747.13 297.44 1749.61 298.09C1754.98 299.778 1764.34 297.44 1769.43 293.284C1776.31 287.569 1778.65 282.503 1778.79 273.021C1778.93 265.228 1778.65 264.579 1774.38 260.942C1769.02 256.396 1763.1 256.006 1756.63 259.773ZM1764.61 269.385C1768.19 276.788 1760.76 290.167 1753.6 289.387C1750.3 288.998 1750.02 288.608 1750.3 282.763C1750.98 270.164 1760.76 261.202 1764.61 269.385Z" fill="#0053A1"></path>
      <path id="path_04" d="M1808.52 258.084C1807.42 258.474 1805.08 260.033 1803.43 261.461L1800.26 264.059V261.331C1800.26 258.864 1799.44 258.474 1794.89 258.474H1789.53L1788.56 265.877C1787.74 272.502 1785.12 286.01 1783.06 294.453C1782.37 297.18 1782.78 297.44 1788.97 297.44H1795.72L1797.92 286.919C1800.54 274.58 1803.01 270.294 1808.66 269.255C1812.92 268.475 1815.4 264.968 1815.4 259.643C1815.4 257.175 1812.92 256.656 1808.52 258.084Z" fill="#0053A1"></path>
      <path id="path_04" d="M1851.88 258.085C1846.78 259.384 1843.07 262.631 1841.55 267.047C1839.63 272.503 1842.52 277.958 1849.4 281.465C1852.43 282.893 1853.94 284.712 1853.94 286.53C1853.94 290.297 1851.33 291.076 1844.44 289.388C1837.98 287.829 1837.98 287.829 1836.74 292.505C1835.91 295.622 1836.32 296.142 1841.28 297.571C1854.08 301.078 1867.84 294.973 1868.12 285.491C1868.26 279.906 1866.33 277.308 1859.17 273.931C1850.64 269.775 1853.53 264.579 1863.58 265.878C1868.26 266.528 1868.81 266.268 1869.63 263.021C1870.18 261.073 1870.18 259.124 1869.77 258.735C1868.81 257.695 1855.18 257.176 1851.88 258.085Z" fill="#0053A1"></path>
      <path id="path_04" d="M1889.04 258.994C1883.95 261.202 1878.03 267.047 1876.1 271.852C1875.28 273.931 1874.59 278.736 1874.59 282.633C1874.59 288.868 1875.14 290.426 1878.44 293.544C1883.4 298.219 1890.83 299.648 1900.6 297.7C1904.73 296.921 1908.31 295.881 1908.59 295.622C1909 295.232 1908.86 293.284 1908.31 291.076C1907.49 287.569 1907.07 287.309 1904.05 288.478C1898.54 290.426 1891.79 289.907 1889.32 287.309C1885.46 283.282 1886.56 282.243 1896.06 281.464C1910.24 280.425 1916.98 273.801 1913.13 264.839C1909.96 257.825 1898.54 255.097 1889.04 258.994ZM1901.29 268.216C1902.26 270.683 1896.89 274.061 1892.21 274.061C1887.94 274.061 1887.67 273.671 1889.87 270.034C1892.48 265.358 1899.64 264.319 1901.29 268.216Z" fill="#0053A1"></path>
      <path id="path_04" d="M1930.2 258.994C1924.69 261.332 1921.39 265.748 1921.39 270.813C1921.39 274.97 1924 277.957 1931.44 282.243C1938.87 286.659 1933.78 292.115 1924.55 289.777C1919.05 288.348 1918.08 288.738 1916.71 293.154C1915.88 295.622 1916.43 296.141 1920.98 297.31C1927.72 299.129 1930.2 299.129 1936.94 297.18C1940.52 296.141 1943.27 294.323 1944.93 291.725C1949.74 284.322 1948.09 281.074 1935.98 272.112C1930.89 268.345 1933.09 265.618 1941.07 266.007C1946.71 266.137 1947.4 265.878 1948.09 262.89C1948.64 260.942 1948.78 259.123 1948.37 258.734C1946.58 257.175 1934.19 257.305 1930.2 258.994Z" fill="#0053A1"></path>
      <path id="path_04" d="M1219.54 265.229C1218.85 268.996 1216.92 277.828 1215.55 284.842L1212.8 297.571L1219.13 297.182L1225.32 296.792L1228.49 281.205C1230.28 272.633 1231.93 264.06 1232.34 261.982C1233.03 258.605 1232.89 258.475 1226.97 258.475H1220.92L1219.54 265.229Z" fill="#0053A1"></path>
      <path id="path_04" d="M1406.87 273.021C1405.36 281.074 1403.57 289.907 1403.02 292.504L1402.19 297.44H1414.58L1418.16 279.516C1420.09 269.644 1421.74 260.942 1421.74 260.033C1421.74 258.993 1419.54 258.474 1415.82 258.474H1409.76L1406.87 273.021Z" fill="#0053A1"></path>
      <path id="path_04" d="M1822.28 258.734C1822.15 258.993 1820.5 267.696 1818.29 278.217L1814.44 297.44H1827.38L1831.09 279.516C1833.02 269.774 1834.67 260.942 1834.67 260.033C1834.67 258.993 1832.47 258.474 1828.48 258.474C1825.04 258.474 1822.28 258.604 1822.28 258.734Z" fill="#0053A1"></path>
    </g>
    <g id="g_AIRSEP">
      <path id="path_03" d="M1966.81 2.72762C1961.03 5.8449 1956.21 12.0795 1954.29 18.8336C1951.12 29.6142 1960.2 43.6419 1972.32 46.7592C1983.6 49.6167 1996.13 44.4212 2001.08 34.6797C2009.76 17.6646 1998.19 0 1978.24 0C1974.11 0 1969.84 1.03909 1966.81 2.72762ZM1988.28 5.97479C2005.08 13.5082 2000.67 41.5637 1982.64 42.9925C1970.25 43.9017 1962.68 39.0959 1959.65 28.3153C1958.14 22.8601 1958.28 21.4313 1960.75 15.9761C1965.57 5.06558 1977 0.909207 1988.28 5.97479Z" fill="#EA3B42"></path>
      <path id="path_03" d="M1968.88 11.9501C1968.46 12.8593 1968.32 18.834 1968.46 25.3284C1968.88 35.0699 1969.29 37.0182 1971.22 37.4078C1973 37.7975 1973.55 36.6285 1973.97 32.2124C1974.38 27.2767 1974.79 26.6272 1977.68 26.6272C1981.13 26.6272 1982.64 28.4457 1984.02 34.0308C1984.43 36.109 1985.67 37.6676 1986.77 37.6676C1989.52 37.6676 1989.52 30.0043 1986.77 26.3675C1984.84 23.7697 1984.84 23.3801 1986.91 22.341C1989.93 20.7823 1989.8 14.288 1986.63 12.0799C1983.47 9.87187 1969.7 9.87187 1968.88 11.9501ZM1982.09 15.457C1984.84 17.5352 1984.98 18.1846 1983.47 20.003C1982.5 21.172 1979.89 22.0812 1977.68 22.0812C1974.24 22.0812 1973.69 21.5617 1973.69 18.3145C1973.69 14.9374 1974.93 13.5087 1977.96 13.119C1978.51 12.9891 1980.3 14.0282 1982.09 15.457Z" fill="#EA3B42"></path>
      <path id="path_03" d="M1111.63 10.0014C1108.32 14.8072 1094.56 36.3684 1081.07 57.7997C1052.16 103.78 1021.74 147.551 1016.1 151.448C1013.9 153.007 1009.63 155.475 1006.47 156.903C1001.1 159.501 995.041 165.216 995.041 167.684C995.041 169.502 1054.78 169.113 1056.71 167.294C1059.87 164.307 1058.36 162.488 1051.89 161.579C1045.28 160.8 1037.71 155.864 1037.71 152.487C1037.71 149.11 1044.87 136.121 1049.27 131.575C1051.89 128.848 1056.98 125.081 1060.7 123.392C1067.03 120.275 1068.27 120.145 1093.18 120.275C1107.36 120.275 1119.2 120.665 1119.61 121.055C1120.02 121.314 1121.4 128.848 1122.91 137.55C1125.39 153.007 1125.39 153.396 1122.78 156.514C1121.12 158.592 1117.82 160.021 1112.73 161.06C1105.98 162.359 1102.4 164.826 1102.4 168.074C1102.4 168.463 1119.2 168.853 1139.57 168.853C1168.34 168.853 1176.73 168.463 1176.73 167.164C1176.73 164.177 1174.67 162.748 1169.57 161.839C1160.35 160.28 1158.29 155.345 1150.58 116.249C1128.56 4.80593 1128.01 2.59786 1120.57 1.55877C1118.23 1.16911 1116.31 2.98752 1111.63 10.0014ZM1103.78 48.9674C1103.78 49.6168 1106.53 62.3457 1109.84 77.5425C1113.14 92.7392 1115.48 105.468 1115.07 105.858C1114.24 106.637 1065.24 106.767 1065.24 105.988C1065.24 105.468 1070.61 96.7657 1091.67 63.255C1100.06 50.0065 1103.78 45.5904 1103.78 48.9674Z" fill="#EA3B42"></path>
      <path id="path_03" d="M1603.02 3.24777C1601.78 4.28686 1600.54 6.36505 1599.99 7.7938C1598.61 11.9502 1594.9 11.9502 1582.78 7.66392C1573.7 4.41675 1568.05 3.37765 1557.59 2.85811C1541.49 2.07879 1531.72 3.8972 1520.43 9.48233C1499.65 19.7434 1490.97 43.123 1501.02 61.8267C1505.7 70.659 1517.68 82.3488 1533.51 93.7788C1539.84 98.1949 1549.06 105.728 1554.15 110.404C1562.27 117.938 1563.37 119.626 1564.89 126.25C1567.92 140.798 1563.24 151.319 1551.26 157.034C1540.25 162.229 1524.01 162.879 1515.06 158.462C1502.54 152.488 1495.1 143.396 1493.18 132.225C1491.52 123.003 1490.15 120.795 1485.74 120.795C1483.13 120.795 1482.58 121.704 1481.75 127.549C1481.34 131.316 1479.69 139.109 1478.17 144.824C1476.66 150.539 1475.01 159.112 1474.46 163.918C1473.63 172.49 1473.77 172.75 1476.8 172.75C1478.45 172.75 1481.61 170.932 1483.68 168.853C1489.46 163.008 1493.73 162.749 1506.39 167.554C1519.47 172.49 1538.32 174.179 1551.54 171.581C1563.24 169.243 1577.55 161.969 1584.02 154.955C1594.34 144.045 1598.47 127.939 1594.48 114.82C1590.49 101.182 1582.37 91.9604 1556.63 71.4383C1532.27 51.8254 1528 47.4092 1526.21 38.9666C1525.11 33.3815 1525.25 30.6539 1526.62 26.6274C1531.72 12.3398 1562 8.18346 1578.65 19.6135C1584.57 23.64 1590.35 33.2516 1594.62 45.8506C1597.51 54.6829 1600.68 55.3323 1602.47 47.4092C1603.02 44.5517 1605.08 36.239 1607.01 28.9653C1612.24 8.57312 1610.31 -3.76611 1603.02 3.24777Z" fill="#EA3B42"></path>
      <path id="path_03" d="M1372.19 6.62342C1364.2 7.14296 1348.92 7.53262 1338.05 7.53262C1318.78 7.40274 1314.24 8.31194 1316.3 11.5591C1316.85 12.3384 1318.78 12.9879 1320.71 12.9879C1325.39 12.9879 1332.41 15.9753 1335.57 19.2224C1338.6 22.4696 1339.29 18.0534 1327.59 72.0863C1317.27 119.235 1309.42 150.018 1306.81 154.045C1304.6 157.292 1296.76 161.059 1292.08 161.059C1288.64 161.059 1284.09 164.566 1284.09 167.293C1284.09 168.462 1294.14 168.852 1322.63 168.852C1359.8 168.852 1361.18 168.722 1362.55 166.254C1364.75 162.358 1363.52 161.448 1354.98 160.799C1350.3 160.409 1346.31 159.37 1344.93 158.071C1341.22 154.564 1342.32 138.588 1347.55 120.144C1349.89 111.572 1352.5 102.09 1353.19 99.1028C1354.71 92.9981 1356.22 92.0889 1363.1 93.128C1367.92 93.7774 1368.2 94.4268 1388.15 129.756C1399.17 149.499 1408.94 166.384 1409.63 167.163C1411.42 169.242 1454.36 169.501 1457.53 167.553C1460.55 165.735 1457.66 162.098 1452.02 160.279C1443.35 157.552 1430.82 143.524 1419.4 123.521C1415.82 117.417 1410.18 108.065 1406.87 102.74C1400.27 92.3486 1400.27 91.8291 1409.21 90.2705C1417.61 88.9716 1439.08 78.191 1444.17 72.8656C1450.37 66.3713 1455.05 54.5516 1455.19 45.4595C1455.32 31.172 1443.49 15.9753 1427.93 10.52C1420.09 7.7924 1401.37 5.06478 1392.15 5.45444C1389.12 5.45444 1380.17 6.10387 1372.19 6.62342ZM1404.4 19.6121C1414.44 23.119 1418.57 27.795 1419.81 37.2767C1422.7 58.9678 1412.38 75.3335 1392.15 81.1784C1383.75 83.6462 1362.55 85.075 1359.94 83.3865C1358.42 82.3474 1358.7 79.4899 1361.73 66.1115C1368.33 37.0169 1373.29 20.2615 1375.77 18.573C1379.62 15.8454 1395.72 16.4948 1404.4 19.6121Z" fill="#EA3B42"></path>
      <path id="path_03" d="M1663.99 6.36372C1636.33 7.14304 1635.78 7.14304 1635.36 10.0005C1634.95 12.4684 1635.78 12.8581 1641.56 13.6374C1652.84 15.0661 1654.36 16.1052 1654.36 22.3398C1654.22 36.6273 1648.44 65.7219 1637.84 104.558C1633.85 118.846 1629.58 136.121 1628.21 142.875C1625.59 155.604 1624.08 157.941 1617.19 159.24C1609.07 160.929 1606.18 162.617 1606.18 165.735V168.852H1667.16C1700.74 168.852 1732.95 168.462 1738.6 168.073L1748.92 167.163L1753.87 150.798C1761.17 126.379 1761.31 125.989 1757.18 125.989C1754.7 125.989 1752.22 127.938 1747.82 133.263C1741.62 140.796 1728.82 150.278 1720.15 153.655C1713.82 156.123 1685.47 158.851 1677.48 157.682C1674.18 157.162 1669.22 155.733 1666.47 154.305C1661.93 152.226 1661.24 151.317 1661.24 147.291C1661.24 141.576 1667.02 114.819 1671.29 100.661L1674.45 90.2705H1689.59C1702.81 90.4004 1705.42 90.7901 1711.48 93.5177L1718.36 96.7649L1718.78 106.896C1719.05 114.559 1719.74 117.157 1721.25 117.807C1725.11 119.105 1726.9 115.209 1732.13 93.5177C1734.88 81.698 1738.32 68.7093 1739.7 64.6828C1741.76 58.4483 1741.76 57.0195 1740.25 55.7207C1736.81 52.993 1733.64 55.0712 1731.03 61.6954C1727.72 70.1381 1725.66 72.2163 1717.81 74.6841C1711.34 76.6324 1679.68 79.6198 1677.48 78.4508C1675.42 77.2819 1676.24 72.8657 1683.26 48.3171C1688.22 31.1721 1691.11 23.249 1693.31 21.1708C1695.79 18.8328 1698.95 18.0535 1711.62 16.8845C1728.69 15.3259 1740.25 16.365 1748.78 20.5214C1757.18 24.5479 1759.38 27.6651 1761.03 37.9262C1762 44.2906 1763.23 47.5378 1764.89 48.5769C1768.88 50.9149 1770.67 47.1481 1773.97 29.6134C1775.48 20.7811 1777.27 12.4684 1777.69 10.9098C1778.38 8.31202 1777.82 8.05225 1768.33 7.27293C1753.32 6.10394 1696.2 5.5844 1663.99 6.36372Z" fill="#EA3B42"></path>
      <path id="path_03" d="M1833.43 6.10393C1808.24 6.49359 1804.39 7.27291 1804.39 11.1695C1804.39 12.4684 1806.32 12.9879 1810.72 12.9879C1815.81 12.9879 1817.74 13.6374 1821.05 16.7546C1826.14 21.6903 1826.28 26.8858 1821.6 46.109C1802.74 123.651 1795.58 151.707 1793.93 154.175C1792.69 155.993 1789.11 157.941 1784.57 159.11C1779.48 160.539 1776.86 162.098 1775.76 164.176C1774.93 165.865 1774.66 167.683 1775.07 168.073C1775.62 168.462 1792.55 168.852 1812.79 168.852C1847.34 168.852 1849.81 168.722 1851.05 166.514C1853.12 163.007 1850.36 161.059 1843.34 161.059C1830.96 161.059 1829.03 152.486 1835.5 124.041C1837.42 115.469 1839.35 106.117 1839.9 103.259L1841 98.0637L1862.89 97.8039C1895.79 97.5442 1912.58 92.6085 1927.58 78.8405C1933.78 73.1255 1935.43 70.6576 1937.91 62.6046C1941.62 51.0447 1941.21 37.1469 1937.08 29.0939C1933.78 22.7294 1920.98 14.2868 1908.72 10.5201C1898.81 7.4028 1879.13 5.06483 1867.02 5.45449C1862.48 5.71427 1847.34 5.97404 1833.43 6.10393ZM1885.46 17.6638C1890.01 18.8328 1894.96 21.5604 1898.13 24.418C1902.67 28.4444 1903.77 30.5226 1905.01 37.2767C1906.8 46.7585 1905.01 60.0069 1901.02 67.2806C1897.44 73.9048 1886.84 81.1784 1876.93 83.7762C1865.64 86.7636 1847.2 87.9325 1845.68 85.8544C1845.13 84.9452 1846.23 79.7497 1848.02 74.2944C1849.81 68.9691 1853.39 54.5517 1856.01 42.4722C1858.62 30.3927 1861.38 19.742 1862.2 18.8328C1865.23 15.3259 1875.55 14.8063 1885.46 17.6638Z" fill="#EA3B42"></path>
      <path id="path_03" d="M1218.99 7.40278C1218.44 7.79244 1218.02 9.22119 1218.02 10.3902C1218.02 12.0787 1219.68 12.858 1224.22 13.5075C1232.75 14.5465 1235.78 16.365 1238.12 21.4305C1239.77 25.1973 1239.64 27.4053 1237.3 39.225C1233.85 56.7597 1229.04 76.8922 1220.78 107.156C1217.2 120.664 1213.07 136.38 1211.83 141.965C1208.94 154.305 1206.19 157.552 1195.31 161.448C1190.36 163.267 1186.92 165.345 1186.64 166.644C1186.23 168.722 1189.26 168.852 1224.77 168.852H1263.45V164.955C1263.45 161.319 1263.03 161.059 1258.49 161.059C1252.71 161.059 1244.73 156.902 1243.49 153.266C1242.66 150.668 1249.55 118.846 1258.63 84.4256C1261.93 71.9565 1266.61 53.7723 1268.95 44.1607C1272.39 29.8732 1274.18 25.457 1278.04 20.3914C1281.34 15.9753 1283.68 14.2868 1286.02 14.2868C1291.8 14.2868 1296.48 11.9488 1296.48 9.0913C1296.48 6.49357 1295.66 6.49357 1258.22 6.49357C1237.16 6.49357 1219.4 6.88323 1218.99 7.40278Z" fill="#EA3B42"></path>
    </g>
    <g id="g_ICON">
      <g id="g_red">
        <path id="path_02" d="M4 10.3913V7.14414V3.89697H68.6929H133.386V7.14414V10.3913H68.6929H4ZM916.586 10.3907C916.586 12.9885 917.549 12.9885 1003.03 12.9885C1050.65 12.9885 1089.88 12.5988 1090.43 12.2092C1090.84 11.8195 1090.84 10.6505 1090.43 9.61142C1089.88 8.05278 1076.12 7.79301 1003.16 7.79301C917.549 7.79301 916.586 7.79301 916.586 10.3907ZM900.068 29.8737V26.6266V23.3794H986.234H1072.26L1071.85 26.2369L1071.44 29.2243L985.821 29.614L900.068 29.8737ZM483.681 43.642C481.754 47.6685 480.24 51.1754 480.24 51.3053C480.24 51.5651 470.054 74.1654 457.666 101.571C409.353 208.338 400.406 228.471 400.406 230.029C400.406 231.718 403.71 240.55 445.003 347.317C448.001 355.097 450.906 362.632 453.657 369.771C466.57 403.271 476.111 428.022 476.111 428.236C476.111 428.496 487.948 428.496 502.538 428.366L528.966 427.977L536.95 409.792C552.641 374.723 590.356 288.219 590.356 287.439C590.356 287.179 581.822 287.179 571.498 287.309L552.503 287.699L538.601 320.56C531.031 338.615 524.149 353.941 523.323 354.721C522.497 355.5 514.789 355.76 504.19 355.63L486.434 355.24L468.265 304.584C458.355 276.659 450.096 253.149 450.096 252.24C449.958 251.071 455.051 250.681 471.293 250.681H492.628V258.475V266.398L509.971 266.008L527.314 265.618L534.059 248.863C537.775 239.641 540.804 231.068 540.804 229.77C540.804 228.341 536.95 220.028 532.27 211.066L523.598 194.83H508.182H492.628V202.623V210.416H470.605C453.812 210.416 448.582 210.027 448.582 208.728C448.719 207.949 459.043 184.959 471.844 157.812L494.83 108.455H515.752H536.674L545.759 126.64C548.871 133.101 552.5 140.429 555.31 146.103L555.325 146.133L555.327 146.137L555.332 146.146L555.334 146.151C556.864 149.239 558.149 151.834 558.973 153.526L563.377 162.358H581.684H599.991L598.752 159.371C598.59 159.004 598.048 157.797 597.203 155.919L597.18 155.867L597.174 155.854L597.173 155.852C594.414 149.714 588.495 136.545 582.097 122.094C573.563 103.13 562.689 78.8413 558.009 68.1906C557.376 66.7742 556.739 65.3466 556.104 63.9273L556.104 63.9257L556.093 63.902L556.084 63.8815C551.9 54.514 547.879 45.5142 546.447 42.473L543.694 36.3683H515.339H487.122L483.681 43.642ZM775.765 165.474C775.352 166.514 775.352 167.683 775.765 168.072C776.315 168.462 819.536 168.852 872.116 168.852C966.54 168.852 967.503 168.852 967.503 166.254C967.503 163.656 966.54 163.656 871.978 163.656C791.319 163.656 776.315 163.916 775.765 165.474ZM927.59 102.61C833.579 102.61 832.615 102.61 832.615 100.012C832.615 97.4146 833.579 97.4146 927.59 97.4146C1021.6 97.4146 1022.56 97.4146 1022.56 100.012C1022.56 102.61 1021.6 102.61 927.59 102.61ZM858.775 80.5292C858.775 83.1269 859.739 83.1269 948.932 83.1269C1038.13 83.1269 1039.09 83.1269 1039.09 80.5292C1039.09 77.9314 1038.13 77.9314 948.932 77.9314C859.739 77.9314 858.775 77.9314 858.775 80.5292ZM137.514 168.852C13.2213 168.852 12.2578 168.852 12.2578 166.254C12.2578 163.656 13.2213 163.656 137.514 163.656C261.807 163.656 262.771 163.656 262.771 166.254C262.771 168.852 261.807 168.852 137.514 168.852ZM12.6761 78.8408C11.7126 79.1006 10.8867 80.5294 10.8867 81.9581C10.8867 84.426 13.089 84.426 99.5297 84.426C151.422 84.426 188.586 83.9064 188.999 83.257C189.549 82.6076 189.412 81.1788 188.999 80.0098C188.173 78.1914 179.501 77.9316 101.181 78.0615C53.4189 78.0615 13.502 78.4512 12.6761 78.8408Z" fill="#EA3B42" fill-rule="evenodd" clip-rule="evenodd"></path>
      </g>
      <g id="g_blue">
        <path id="path_01" d="M473.779 27.5356C467.585 40.6542 451.618 74.9443 438.266 103.909C424.777 132.874 413.49 156.773 413.215 157.163C412.94 157.422 412.114 156.903 411.426 155.864C410.187 154.045 350.174 18.4436 346.87 10.0009C346.045 8.05261 344.668 6.10431 343.705 5.84454C342.741 5.45488 297.043 5.325 242.123 5.45488C164.079 5.71466 143.157 6.23421 145.91 7.40318C152.241 10.0009 168.208 20.3918 174.127 25.5873C177.293 28.3149 186.239 37.5369 194.085 46.1094C212.667 66.3717 218.724 71.5672 230.423 77.542L240.058 82.4777L301.723 82.8673L363.25 83.257V86.3743V89.6215H286.032H208.813L216.797 95.3365C226.019 101.831 242.398 117.417 257.815 134.432C270.753 148.72 280.251 156.513 290.299 160.929L297.869 164.306L348.798 164.956L399.726 165.605V168.852V172.1L338.612 172.489L277.498 172.749L285.619 178.074C297.319 185.738 306.816 194.83 319.892 211.195C335.721 230.808 341.915 237.173 351.413 243.797L359.396 249.382H380.456H401.515L397.661 239.641L393.67 230.029L408.535 197.168C434.137 140.667 474.329 51.6945 478.871 41.1737L483.414 31.1724H515.347C539.71 31.1724 547.556 31.5621 548.107 32.7311C548.52 33.6403 557.329 53.3831 567.652 76.6328C578.113 99.8825 588.574 123.522 591.052 129.237C593.529 134.952 598.072 145.083 601.237 151.837C604.403 158.591 606.881 164.956 606.881 165.865C606.881 167.294 602.339 167.553 583.206 167.294L559.669 166.904L546.455 140.017L533.241 113.131L515.898 113.001H498.692L478.321 156.773C467.034 180.802 457.537 201.454 457.124 202.883C456.573 204.831 457.399 205.221 461.941 205.221H467.309L486.58 163.917L505.85 122.743L516.999 122.353C526.084 122.093 528.286 122.353 528.699 123.912C528.974 125.081 542.188 153.656 558.017 187.556L586.922 249.252L630.418 249.382H674.051L682.035 243.667C692.358 236.523 696.9 231.847 713.831 211.066C728.971 192.622 735.578 186.257 747.829 178.204L755.95 172.749L694.147 172.489L632.345 172.1V168.852V165.605L684.65 164.956L736.955 164.306L745.902 159.76C755.95 154.695 764.759 146.901 781.827 127.938C794.49 114.04 809.906 99.7526 819.128 93.5181L824.772 89.6215H746.865H668.821V86.3743V83.1271H728.696C784.029 83.1271 789.26 82.9972 796.004 80.6593C809.769 76.1132 820.092 67.9304 840.326 45.46C860.559 23.1195 868.956 16.4953 887.675 7.53307C890.428 6.10431 872.81 5.84454 791.324 5.45488C712.729 5.19511 691.257 5.58476 689.88 6.75375C689.055 7.66295 684.375 16.3654 679.695 25.977C668.821 48.7072 636.199 115.729 629.179 129.886C626.289 135.991 622.159 144.564 619.957 148.98C617.892 153.526 615.69 157.163 615.139 157.163C614.176 157.163 606.743 141.186 569.717 58.4487C561.183 39.4852 552.374 19.6125 549.896 14.2872L545.491 4.54567L515.072 4.15602L484.79 3.89624L473.779 27.5356Z" fill="#0053A1"></path>
      </g>
    </g>
  </g>
</svg>